<?xml version="1.0" encoding="UTF-8" standalone="no"?>
<!-- Created with Inkscape (http://www.inkscape.org/) -->

<svg
   width="1023.9999"
   height="1023.9999"
   viewBox="0 0 270.93331 270.93331"
   version="1.1"
   id="svg1"
   inkscape:version="1.3 (0e150ed6c4, 2023-07-21)"
   xmlns:inkscape="http://www.inkscape.org/namespaces/inkscape"
   xmlns:sodipodi="http://sodipodi.sourceforge.net/DTD/sodipodi-0.dtd"
   xmlns="http://www.w3.org/2000/svg"
   xmlns:svg="http://www.w3.org/2000/svg">
  <sodipodi:namedview
     id="namedview1"
     pagecolor="#505050"
     bordercolor="#eeeeee"
     borderopacity="1"
     inkscape:showpageshadow="0"
     inkscape:pageopacity="0"
     inkscape:pagecheckerboard="0"
     inkscape:deskcolor="#505050"
     inkscape:document-units="px" />
  <defs
     id="defs1" />
  <g
     inkscape:label="Layer 1"
     inkscape:groupmode="layer"
     id="layer1">
    <path
       d="m 35.86268,111.27236 c 10.240821,-6.67103 24.765668,1.5304 35.806707,-17.087763 5.207633,-8.781473 6.134005,-26.077115 6.466185,-42.61257 0.26085,-12.984622 5.834775,-16.269002 12.006297,-20.609555 12.240981,-8.609319 17.394721,-6.044304 37.153801,-5.526364 18.49398,0.48477 65.82826,-1.733567 77.19897,7.858525 6.55725,5.53156 8.71451,17.229405 8.94384,28.791616 0.50751,14.380234 0.32996,25.451971 11.94724,36.494587 9.29636,8.836514 9.44115,5.904654 18.10456,12.958354 12.45575,10.14141 8.68771,21.46493 8.23072,83.08934 -0.14462,19.50213 -2.95609,45.31489 -29.70483,44.8955 -36.00052,-0.56444 -62.04629,-0.57093 -77.99937,-0.60217 -14.28678,-0.028 -42.31079,1.79667 -58.451014,1.64435 -15.89955,-0.15006 -54.93142,1.77248 -63.35233,-9.17398 -8.37613,-10.88825 -5.1644,-33.30497 -4.75995,-47.40302 1.02243,-35.6394 -0.26279,-29.4838 3.87582,-53.18968 2.06907,-11.8516 9.411376,-16.19063 14.533354,-19.52717 z"
       style="fill:#c8c8c8;fill-opacity:0.603659;stroke:none;stroke-width:0.264583px;stroke-linecap:butt;stroke-linejoin:miter;stroke-opacity:1"
       id="path1"
       sodipodi:nodetypes="sssssssssssssssss" />
  </g>
</svg>
