<?xml version="1.0" encoding="UTF-8" standalone="no"?>
<!-- Created with Inkscape (http://www.inkscape.org/) -->

<svg
   width="1023.9999"
   height="1023.9999"
   viewBox="0 0 270.93331 270.93331"
   version="1.1"
   id="svg1"
   inkscape:version="1.3 (0e150ed6c4, 2023-07-21)"
   inkscape:export-filename="clouds1.svg"
   inkscape:export-xdpi="33.78"
   inkscape:export-ydpi="33.78"
   xmlns:inkscape="http://www.inkscape.org/namespaces/inkscape"
   xmlns:sodipodi="http://sodipodi.sourceforge.net/DTD/sodipodi-0.dtd"
   xmlns="http://www.w3.org/2000/svg"
   xmlns:svg="http://www.w3.org/2000/svg">
  <sodipodi:namedview
     id="namedview1"
     pagecolor="#505050"
     bordercolor="#eeeeee"
     borderopacity="1"
     inkscape:showpageshadow="0"
     inkscape:pageopacity="0"
     inkscape:pagecheckerboard="0"
     inkscape:deskcolor="#505050"
     inkscape:document-units="px" />
  <defs
     id="defs1" />
  <g
     inkscape:label="Layer 1"
     inkscape:groupmode="layer"
     id="layer1">
    <path
       style="fill:#c8c8c8;fill-opacity:0.603659;stroke:none;stroke-width:0.264583px;stroke-linecap:butt;stroke-linejoin:miter;stroke-opacity:1"
       d="m 24.082378,96.32951 c 12.374858,-10.934806 31.693525,8.87034 48.420949,-4.867718 9.41238,-7.730287 4.557224,-9.78372 4.889401,-26.319175 0.260846,-12.984622 2.944015,-20.736546 12.531894,-29.019049 11.324918,-9.78305 17.920308,-8.146674 37.679388,-7.62874 18.49398,0.484773 31.1391,-0.682383 42.50981,8.909714 6.55725,5.53156 6.61214,16.178218 6.84147,27.740429 0.27963,14.097652 -2.28551,24.089281 2.89395,32.721709 7.32571,12.20951 23.3226,8.42377 38.64046,8.38663 12.82596,-0.0311 19.92756,3.53187 26.79552,11.31781 8.07589,9.15532 6.0082,11.83589 6.93383,28.07685 1.02146,17.92221 3.41274,28.01961 -9.60191,39.06899 -12.10136,10.274 -18.94057,5.86118 -47.79478,5.30799 -22.07158,-0.42315 -33.02812,-4.82348 -43.66389,4.46164 -5.23159,4.56723 -8.40116,6.84873 -10.01832,21.11545 -1.58985,14.02579 -3.77092,16.00675 -10.48044,21.12261 -9.5623,7.29104 -28.64536,7.0526 -44.785586,6.90028 -15.899541,-0.15006 -28.651742,0.1957 -37.072652,-10.75076 -8.376135,-10.88825 -4.915442,-33.83047 -1.080804,-47.40302 5.933965,-21.00302 8.281013,-22.13152 2.084257,-30.444 -12.237008,-16.41502 -20.835893,-2.26504 -29.821676,-13.09484 -4.269114,-5.1452 -6.1968,-11.34241 -6.229481,-23.31627 -0.03284,-12.03081 3.833003,-16.54681 10.32861,-22.28653 z"
       id="path1"
       sodipodi:nodetypes="sssssssssssssssssssssss" />
  </g>
</svg>
