<?xml version="1.0" encoding="UTF-8" standalone="no"?>
<!-- Created with Inkscape (http://www.inkscape.org/) -->

<svg
   width="127.99999"
   height="128"
   viewBox="0 0 33.866664 33.866667"
   version="1.1"
   id="svg1"
   inkscape:version="1.3 (0e150ed6c4, 2023-07-21)"
   inkscape:export-filename="path.svg"
   inkscape:export-xdpi="33.78"
   inkscape:export-ydpi="33.78"
   sodipodi:docname="path.svg"
   xmlns:inkscape="http://www.inkscape.org/namespaces/inkscape"
   xmlns:sodipodi="http://sodipodi.sourceforge.net/DTD/sodipodi-0.dtd"
   xmlns="http://www.w3.org/2000/svg"
   xmlns:svg="http://www.w3.org/2000/svg">
  <sodipodi:namedview
     id="namedview1"
     pagecolor="#505050"
     bordercolor="#eeeeee"
     borderopacity="1"
     inkscape:showpageshadow="0"
     inkscape:pageopacity="0"
     inkscape:pagecheckerboard="0"
     inkscape:deskcolor="#505050"
     inkscape:document-units="mm" />
  <defs
     id="defs1" />
  <g
     inkscape:label="Layer 1"
     inkscape:groupmode="layer"
     id="layer1">
    <path
       style="display:none;fill:none;stroke:#000000;stroke-width:0.264583px;stroke-linecap:butt;stroke-linejoin:miter;stroke-opacity:1"
       d="m 41.906542,67.785806 c -2.191212,-0.02581 -19.027509,-0.02535 -20.290097,-0.03684 -0.0296,-6.085172 -0.31228,-7.205042 -0.655366,-9.378585 -0.37563,-2.379714 -0.753747,-4.104728 -0.804951,-5.487228 -0.102407,-2.765 -0.355885,-8.250102 0.304124,-12.622657 0.660009,-4.372555 0.660008,-9.487616 0.330004,-13.03516 C 20.460252,23.67779 19.212016,19.518567 19.54202,13.330991 19.744293,9.5383712 21.763478,2.6317662 21.716821,-0.07747992"
       id="path1"
       sodipodi:nodetypes="ccsszzsc"
       transform="matrix(0,1.3894794,-1,0,67.720178,-27.037175)" />
    <path
       style="display:none;fill:none;stroke:#000000;stroke-width:0.264583px;stroke-linecap:butt;stroke-linejoin:miter;stroke-opacity:1"
       d="m 41.838736,67.75335 c 0.101659,-4.16023 1.016565,-5.947211 0.935793,-12.223298 -0.08077,-6.276087 0.325145,-9.615608 0.332223,-11.990141 0.0071,-2.374533 1.067721,-5.619488 0.453757,-10.95201 -0.613964,-5.332522 -0.910969,-4.94687 -1.046633,-9.402688 -0.135663,-4.455818 0.434723,-7.18332 0.463263,-11.345103 0.02286,-3.3333678 -1.309083,-8.8785851 -1.250383,-11.00246561 0.01593,-0.57629921 0.04515,-0.87426812 -0.04919,-0.85540093"
       id="path2"
       sodipodi:nodetypes="czzzzssc"
       transform="matrix(0,1.3894794,-1,0,67.720178,-27.037175)" />
    <path
       style="fill:#7b6341;fill-opacity:1;stroke:#000000;stroke-width:0;stroke-linecap:butt;stroke-linejoin:miter;stroke-dasharray:none;stroke-opacity:1"
       d="M 3.9628428,3.9628429 C 5.4808441,1.8044481 9.792461,1.4240918 12.827097,0.93856806 15.861733,0.45304434 22.181988,0.35442783 24.819912,1.4078521 c 2.637924,1.0534243 4.9429,2.5475672 6.25712,4.588555 1.314219,2.0409877 1.944157,3.7403149 2.085707,6.2571199 0.14155,2.516805 -1.571408,5.447255 -1.77285,8.342828 -0.201442,2.895572 1.796921,6.489746 0.625711,8.864255 -1.17121,2.374508 -6.397613,3.22356 -9.177111,3.811654 -2.779498,0.588093 -6.998006,-0.158745 -9.907107,-1.152379 C 10.022282,31.126251 8.4648324,29.958224 6.9281995,28.0833 5.3915666,26.208376 3.0392028,25.181065 2.1987909,23.305759 1.358379,21.430452 0.58282909,19.272484 0.52142658,16.998511 0.46002407,14.724539 2.0887765,12.694438 2.7397924,10.05983 3.3908083,7.4252216 2.4448414,6.1212377 3.9628428,3.9628429 Z"
       id="path5"
       sodipodi:nodetypes="zzzzzzzzzzzzzz" />
  </g>
  <ellipse
     style="fill:#856e41;fill-opacity:1;fill-rule:evenodd;stroke-width:0.830831"
     id="ellipse3"
     cx="-11.781385"
     cy="-12.817348"
     rx="6.3459902"
     ry="2.5911336"
     transform="matrix(-0.94152383,0.3369464,-0.24525341,-0.96945901,0,0)" />
  <ellipse
     style="fill:#856e41;fill-opacity:1;fill-rule:evenodd;stroke-width:0.871793"
     id="ellipse5"
     cx="26.69121"
     cy="15.450082"
     rx="6.6172094"
     ry="2.735997"
     transform="matrix(0.89136481,0.45328663,-0.52611351,0.85041436,0,0)" />
  <ellipse
     style="fill:#856e41;fill-opacity:1;fill-rule:evenodd;stroke-width:0.871793"
     id="ellipse6"
     cx="-17.672684"
     cy="22.750509"
     rx="6.6172094"
     ry="2.735997"
     transform="matrix(-0.18385855,-0.98295271,0.99486994,-0.10116228,0,0)" />
</svg>
