<?xml version="1.0" encoding="UTF-8" standalone="no"?>
<!-- Created with Inkscape (http://www.inkscape.org/) -->

<svg
   width="255.99998"
   height="255.99998"
   viewBox="0 0 67.733328 67.733329"
   version="1.1"
   id="svg1"
   inkscape:version="1.3 (0e150ed6c4, 2023-07-21)"
   inkscape:export-filename="palm.svg"
   inkscape:export-xdpi="33.78"
   inkscape:export-ydpi="33.78"
   sodipodi:docname="palm.svg"
   xmlns:inkscape="http://www.inkscape.org/namespaces/inkscape"
   xmlns:sodipodi="http://sodipodi.sourceforge.net/DTD/sodipodi-0.dtd"
   xmlns="http://www.w3.org/2000/svg"
   xmlns:svg="http://www.w3.org/2000/svg">
  <sodipodi:namedview
     id="namedview1"
     pagecolor="#505050"
     bordercolor="#eeeeee"
     borderopacity="1"
     inkscape:showpageshadow="0"
     inkscape:pageopacity="0"
     inkscape:pagecheckerboard="0"
     inkscape:deskcolor="#505050"
     inkscape:document-units="px" />
  <defs
     id="defs1" />
  <g
     inkscape:label="Layer 1"
     inkscape:groupmode="layer"
     id="layer1">
    <path
       id="path1"
       style="fill:#6ca241;fill-opacity:1;fill-rule:nonzero;stroke:#546e31;stroke-width:1.32292;stroke-linecap:round;stroke-linejoin:round;stroke-dasharray:none;stroke-opacity:1"
       d="m 55.875142,4.8818725 c -5.907136,3.0501994 -9.400007,5.0075001 -12.19047,7.5085855 -2.777712,2.489657 -4.071244,3.838471 -4.625558,7.106026 0,0 -1.107221,3.144198 -2.653683,4.207209 -1.546463,1.063011 -6.405312,0.570355 -12.069449,-1.419265 C 14.336067,17.543271 9.8243672,13.336805 3.3615519,7.9116617 7.472138,16.118556 10.100668,20.969464 13.410551,24.830525 c 3.294758,3.843417 5.083487,4.283826 8.473773,5.010659 3.390285,0.726832 11.612753,0.345357 11.426632,2.130388 -0.18612,1.78503 -3.852084,1.799462 -7.665493,2.806667 -9.52643,1.533516 -15.441056,0.998815 -23.444047,0.589111 8.80939,3.082538 14.132164,4.818306 19.077388,5.670455 4.922624,0.848255 7.354778,1.134821 10.385413,-0.274402 1.124697,-0.522976 2.866286,-2.578499 4.804883,-2.147215 1.938596,0.431284 0.727183,3.81344 -1.18638,7.02485 -1.913562,3.21141 -5.670847,9.739981 -9.606251,15.466342 6.782505,-4.647694 10.762572,-7.535434 13.752132,-10.697021 2.975899,-3.147139 4.771157,-4.144784 4.804665,-7.297528 0.01075,-1.011453 -0.722403,-5.066275 1.115523,-4.986635 1.837927,0.07964 3.851568,3.976264 5.356113,6.616548 1.504545,2.640284 5.449266,11.054211 8.375729,18.169177 C 58.866172,53.597323 58.591202,48.040899 57.467293,43.306917 56.348519,38.594566 55.644428,36.340533 52.748718,34.527608 50.520971,33.132875 47.878902,33.86364 47.199033,30.841337 46.56844,28.038084 62.76975,30.431462 66.025525,28.763293 60.999207,26.756957 56.210883,25.982158 52.450308,25.152335 c -3.760575,-0.829824 -6.22747,-3.991052 -5.403541,-6.429827 3.475524,-7.66986 4.892559,-8.9224096 8.828375,-13.8406355 z"
       sodipodi:nodetypes="csczccszzccsszzcsszzcsssczcc" />
    <path
       id="path12"
       style="fill:none;fill-rule:evenodd;stroke:#546e31;stroke-width:0.646583;stroke-linecap:round;stroke-linejoin:round;stroke-opacity:1"
       d="m 51.790335,27.69112 c -3.458018,-0.628609 -8.9744,1.515578 -12.280556,2.039019 M 56.072401,50.340474 C 55.00279,45.426882 52.958221,40.785196 52.111043,39.656507 49.915083,36.730846 45.830516,35.295162 41.35587,33.032629 40.227281,32.461976 39.654958,31.734744 39.453332,29.812694 m -5.129067,22.290971 c 1.777807,-1.379926 3.637179,-3.935091 4.396268,-5.124812 1.346429,-2.11026 2.014581,-3.001325 2.11449,-5.876915 0.01129,-0.325089 -0.722078,-8.725506 -0.721,-9.104707 M 19.388052,38.74832 c 3.466881,0.272749 5.808291,0.132338 7.563357,-0.36429 1.626641,-0.460288 2.901829,-0.954962 5.574235,-2.052924 2.241546,-0.920942 5.901736,-2.95338 7.364712,-4.472373 M 16.263084,22.670585 c 1.89303,1.217059 5.507564,3.2679 6.861372,3.666465 5.205128,1.532405 11.749697,2.78551 16.435046,3.467464 m -0.120827,-0.126936 c 0.180431,-1.532158 2.887676,-6.911272 3.133354,-8.300981 0.986049,-5.577704 2.537672,-5.804016 3.170256,-6.793409"
       sodipodi:nodetypes="cccssccssccssccsccsc" />
  </g>
</svg>
