<?xml version="1.0" encoding="UTF-8" standalone="no"?>
<!-- Created with Inkscape (http://www.inkscape.org/) -->

<svg
   width="255.99998"
   height="255.99998"
   viewBox="0 0 67.733328 67.733329"
   version="1.1"
   id="svg1"
   inkscape:export-filename="tree.svg"
   inkscape:export-xdpi="33.78"
   inkscape:export-ydpi="33.78"
   xmlns:inkscape="http://www.inkscape.org/namespaces/inkscape"
   xmlns:sodipodi="http://sodipodi.sourceforge.net/DTD/sodipodi-0.dtd"
   xmlns="http://www.w3.org/2000/svg"
   xmlns:svg="http://www.w3.org/2000/svg">
  <sodipodi:namedview
     id="namedview1"
     pagecolor="#505050"
     bordercolor="#eeeeee"
     borderopacity="1"
     inkscape:showpageshadow="0"
     inkscape:pageopacity="0"
     inkscape:pagecheckerboard="0"
     inkscape:deskcolor="#505050"
     inkscape:document-units="mm" />
  <defs
     id="defs1" />
  <g
     inkscape:label="Layer 1"
     inkscape:groupmode="layer"
     id="layer1">
    <path
       id="path2"
       style="fill:#167316;fill-opacity:1;fill-rule:evenodd;stroke:#105c0f;stroke-width:1.323;stroke-dasharray:none;stroke-opacity:1"
       d="m 36.175053,6.6765951 a 12.278337,9.2727022 0 0 0 -10.605038,4.6038529 12.278337,9.2727022 0 0 0 -4.462259,-0.634586 12.278337,9.2727022 0 0 0 -12.2783208,9.272819 12.278337,9.2727022 0 0 0 1.4557248,4.346505 12.278337,9.2727022 0 0 0 -5.6647702,7.791255 12.278337,9.2727022 0 0 0 4.3103312,7.029545 12.278337,9.2727022 0 0 0 -1.3818278,4.23385 12.278337,9.2727022 0 0 0 9.8164548,9.064047 12.278337,9.2727022 0 0 0 -0.214457,1.627291 12.278337,9.2727022 0 0 0 12.27832,9.272302 12.278337,9.2727022 0 0 0 10.436056,-4.413168 12.278337,9.2727022 0 0 0 5.207951,0.895553 12.278337,9.2727022 0 0 0 12.27832,-9.272819 12.278337,9.2727022 0 0 0 -0.205155,-1.687236 12.278337,9.2727022 0 0 0 7.455359,-8.520926 12.278337,9.2727022 0 0 0 -7.605738,-8.572604 12.278337,9.2727022 0 0 0 1.906344,-4.931482 12.278337,9.2727022 0 0 0 -10.667566,-9.190653 12.278337,9.2727022 0 0 0 0.218591,-1.640727 12.278337,9.2727022 0 0 0 -12.27832,-9.2728189 z"
       inkscape:label="path2" />
    <path
       id="path3"
       style="fill:#167316;fill-opacity:1;fill-rule:evenodd;stroke:#105c0f;stroke-width:1.32292;stroke-dasharray:none;stroke-opacity:1"
       d="m 47.661501,26.74335 c -1.785219,-2.019497 -4.978405,-2.474789 -8.204097,-1.169759 -0.400805,-0.745016 -0.889676,-1.447269 -1.45381,-2.088366 -3.525042,-3.998388 -9.154043,-4.796481 -12.57302,-1.782632 -1.958386,1.731331 -2.842134,4.445732 -2.382369,7.317359 -1.185755,0.265016 -2.288171,0.823479 -3.205559,1.623875 -3.003325,2.647811 -3.310267,7.207877 -0.685599,10.185575 0.916627,1.038701 2.116505,1.78808 3.455238,2.157956 0.53024,1.449026 1.896704,3.312797 2.991627,4.555926 3.016564,3.411678 7.189779,1.305624 10.042946,-0.06256 3.416939,1.915178 7.484012,4.420544 10.713685,1.580573 4.08999,-3.605533 4.771054,-9.516988 1.521217,-13.203766 -0.117286,-0.120943 -0.238389,-0.238202 -0.363162,-0.351637 1.971582,-3.155004 2.028152,-6.623733 0.142903,-8.76254 z"
       sodipodi:nodetypes="cccccccccccccc" />
  </g>
</svg>
