<?xml version="1.0" encoding="UTF-8" standalone="no"?>
<!-- Created with Inkscape (http://www.inkscape.org/) -->

<svg
   width="2048"
   height="2047.9999"
   viewBox="0 0 541.86665 541.86663"
   version="1.1"
   id="svg1"
   inkscape:export-filename="jungle.svg"
   inkscape:export-xdpi="33.78"
   inkscape:export-ydpi="33.78"
   xmlns:inkscape="http://www.inkscape.org/namespaces/inkscape"
   xmlns:sodipodi="http://sodipodi.sourceforge.net/DTD/sodipodi-0.dtd"
   xmlns="http://www.w3.org/2000/svg"
   xmlns:svg="http://www.w3.org/2000/svg"
   xmlns:rdf="http://www.w3.org/1999/02/22-rdf-syntax-ns#"
   xmlns:cc="http://creativecommons.org/ns#"
   xmlns:dc="http://purl.org/dc/elements/1.1/">
  <sodipodi:namedview
     id="base"
     pagecolor="#ffffff"
     bordercolor="#000000"
     borderopacity="0.3"
     inkscape:pageopacity="0.0"
     inkscape:pageshadow="2"
     inkscape:zoom="0.35"
     inkscape:cx="1185.7143"
     inkscape:cy="1372.8571"
     inkscape:document-units="mm"
     inkscape:showpageshadow="0"
     inkscape:pagecheckerboard="0"
     inkscape:deskcolor="#505050"
     inkscape:window-width="1920"
     inkscape:window-height="1017"
     inkscape:window-x="-8"
     inkscape:window-y="-8"
     inkscape:window-maximized="1"
     inkscape:current-layer="svg1" />
  <defs
     id="defs1" />
  <metadata
     id="metadata1">
    <rdf:RDF>
      <cc:Work
         rdf:about="">
        <dc:format>image/svg+xml</dc:format>
        <dc:type
           rdf:resource="http://purl.org/dc/dcmitype/StillImage" />
      </cc:Work>
    </rdf:RDF>
  </metadata>
  <rect
     style="fill:#ebe294;fill-opacity:1;stroke:#5a5a5a;stroke-width:0;stroke-linecap:round;stroke-linejoin:round;stroke-dashoffset:165.381;paint-order:markers fill stroke"
     id="rect39"
     width="551.08929"
     height="548.06543"
     x="-3.7797618"
     y="-4.5357141" />
  <path
     style="fill:none;stroke:#fdf5b7;stroke-width:9.26042;stroke-linecap:round;stroke-linejoin:round;stroke-dasharray:none;stroke-opacity:1"
     d="m -3.7797621,92.982141 c 0,0 64.2559521,-10.583333 83.1547611,-13.607142 18.898809,-3.023809 65.767861,-8.315476 92.982141,-6.047618 27.21428,2.267857 65.01191,7.559524 80.88691,10.583333 15.87501,3.023809 87.69046,9.071427 117.17261,10.583333 29.48215,1.511903 76.35118,-9.07143 104.32143,-13.607142 27.97024,-4.535715 68.03572,-13.607144 68.03572,-13.607144"
     id="path39"
     sodipodi:nodetypes="csssssc" />
  <path
     style="fill:none;stroke:#fdf5b7;stroke-width:9.26042;stroke-linecap:round;stroke-linejoin:round;stroke-dasharray:none;stroke-opacity:1"
     d="m -4.5357142,139.85119 c 0,0 42.1821412,9.90297 77.7874982,10.28095 35.605356,0.37798 64.902536,-7.05488 101.222026,-3.70417 36.31949,3.35072 62.89523,10.81013 93.88928,14.58989 30.99405,3.77976 61.9881,3.77976 91.47024,4.53571 29.48214,0.75595 139.09523,-5.29167 145.89881,-6.04762 6.80357,-0.75595 51.40476,-5.29167 51.40476,-5.29167"
     id="path40"
     sodipodi:nodetypes="czzzzzc" />
  <path
     style="fill:none;stroke:#fdf5b7;stroke-width:9.26042;stroke-linecap:round;stroke-linejoin:round;stroke-dasharray:none;stroke-opacity:1"
     d="m -4.5357142,201.83928 c 0,0 157.2380942,2.26786 160.2619042,2.26786 3.02381,0 84.66666,4.53571 91.47023,6.80357"
     id="path41" />
  <path
     style="fill:none;stroke:#fdf5b7;stroke-width:9.26042;stroke-linecap:round;stroke-linejoin:round;stroke-dasharray:none;stroke-opacity:1"
     d="m -2.2678571,244.17262 c 0,0 77.1071441,-1e-5 106.5892871,5.29166 29.48214,5.29167 83.86422,11.47303 124.73214,5.29167 40.86792,-6.18136 61.23214,-15.87501 80.88691,-27.21429 19.65477,-11.33928 59.72022,-27.97023 106.58927,-21.16666 46.86905,6.80357 122.80448,18.9366 128.09614,19.69256"
     id="path42"
     sodipodi:nodetypes="czzzzc" />
  <path
     style="fill:none;stroke:#fdf5b7;stroke-width:9.26042;stroke-linecap:round;stroke-linejoin:round;stroke-dasharray:none;stroke-opacity:1"
     d="m 336.39881,263.82738 c 0,0 52.00377,12.64262 97.51785,12.85119 45.51408,0.20857 111.88094,-3.02382 111.88094,-3.02382"
     id="path43"
     sodipodi:nodetypes="czc" />
  <path
     style="fill:none;stroke:#fdf5b7;stroke-width:9.26042;stroke-linecap:round;stroke-linejoin:round;stroke-dasharray:none;stroke-opacity:1"
     d="m -1.5119047,303.89285 c 0,0 75.1868167,-10.04599 109.6130947,-9.82737 64.8973,0.41212 129.10766,13.88249 179.16071,21.92261 45.55392,7.31742 134.17842,6.5931 165.55358,4.53572 46.11308,-3.0238 87.69045,-14.36309 87.69045,-14.36309"
     id="path44"
     sodipodi:nodetypes="csssc" />
  <path
     style="fill:none;stroke:#fdf5b7;stroke-width:9.26042;stroke-linecap:round;stroke-linejoin:round;stroke-dasharray:none;stroke-opacity:1"
     d="m -10.583333,359.83333 c 6.0476188,-0.75594 60.035407,5.29167 103.565474,6.80357 43.530069,1.5119 68.035719,-4.53571 117.172619,-9.07142 49.1369,-4.53571 71.95043,-5.75066 120.19643,7.55951 48.246,13.31017 89.20239,27.21428 129.26786,23.43452 40.06547,-3.77976 83.9107,-18.14285 83.9107,-18.14285"
     id="path45"
     sodipodi:nodetypes="czzzzc" />
  <path
     style="fill:none;stroke:#fdf5b7;stroke-width:9.26042;stroke-linecap:round;stroke-linejoin:round;stroke-dasharray:none;stroke-opacity:1"
     d="m -3.0238094,439.96427 c 13.6071424,0 88.3715134,-10.15528 130.7797594,-11.33928 42.40825,-1.184 65.76786,-1.51191 123.22024,3.77976 98.98614,15.06971 197.1744,2.99295 295.57738,-8.31548"
     id="path46"
     sodipodi:nodetypes="czzc" />
  <path
     style="fill:none;stroke:#fdf5b7;stroke-width:9.26042;stroke-linecap:round;stroke-linejoin:round;stroke-dasharray:none;stroke-opacity:1"
     d="m 548.06548,512.53572 c -8.31549,0 -30.62017,4.20447 -85.42264,-5.29167 -54.80247,-9.49614 -109.99599,-33.40427 -114.90475,-33.26191"
     id="path47"
     sodipodi:nodetypes="czc" />
  <path
     style="fill:none;stroke:#fdf5b7;stroke-width:9.26042;stroke-linecap:round;stroke-linejoin:round;stroke-dasharray:none;stroke-opacity:1"
     d="m 380.96221,547.19612 c -21.92263,-0.75597 -53.63482,-16.51757 -80.09315,-31.63661 -26.45833,-15.11904 -40.82144,-25.70235 -68.79168,-34.77379 -27.97024,-9.07144 -75.14509,-8.66686 -103.56548,-6.04763 -28.42039,2.61923 -51.404756,12.09521 -79.374995,18.14284 -27.970239,6.04763 -51.4047621,7.55955 -51.4047621,7.55955"
     id="path48"
     sodipodi:nodetypes="czzzzc" />
</svg>
