<?xml version="1.0" encoding="UTF-8" standalone="no"?>
<!-- Created with Inkscape (http://www.inkscape.org/) -->

<svg
   width="1023.9999"
   height="1023.9999"
   viewBox="0 0 270.93331 270.93331"
   version="1.1"
   id="svg1"
   inkscape:version="1.3 (0e150ed6c4, 2023-07-21)"
   inkscape:export-filename="fields.svg"
   inkscape:export-xdpi="33.78"
   inkscape:export-ydpi="33.78"
   xmlns:inkscape="http://www.inkscape.org/namespaces/inkscape"
   xmlns:sodipodi="http://sodipodi.sourceforge.net/DTD/sodipodi-0.dtd"
   xmlns="http://www.w3.org/2000/svg"
   xmlns:svg="http://www.w3.org/2000/svg">
  <sodipodi:namedview
     id="namedview1"
     pagecolor="#505050"
     bordercolor="#eeeeee"
     borderopacity="1"
     inkscape:showpageshadow="0"
     inkscape:pageopacity="0"
     inkscape:pagecheckerboard="0"
     inkscape:deskcolor="#505050"
     inkscape:document-units="mm"
     inkscape:zoom="1.1338568"
     inkscape:cx="328.96571"
     inkscape:cy="321.46917"
     inkscape:window-width="1920"
     inkscape:window-height="1017"
     inkscape:window-x="-8"
     inkscape:window-y="-8"
     inkscape:window-maximized="1"
     inkscape:current-layer="layer1" />
  <defs
     id="defs1" />
  <g
     inkscape:label="Layer 1"
     inkscape:groupmode="layer"
     id="layer1">
    <rect
       style="fill:#7b6341;fill-opacity:1;stroke:#7b6341;stroke-width:1.32292;stroke-linecap:round;stroke-linejoin:round;stroke-dasharray:none;stroke-dashoffset:165.381;stroke-opacity:1;paint-order:markers fill stroke"
       id="rect39"
       width="275.88339"
       height="278.52344"
       x="-1.9800243"
       y="-4.6200566" />
    <path
       style="fill:#ddb953;fill-opacity:1;stroke:#ad8a43;stroke-width:2.64583;stroke-linecap:butt;stroke-linejoin:miter;stroke-dasharray:none;stroke-opacity:1"
       d="m 66.990824,30.030369 c 2.770392,-2.757105 11.206443,-4.123187 16.170198,-3.960049 4.963755,0.163138 5.623218,2.813326 14.173592,3.260005 8.550376,0.446679 13.197316,-2.140786 19.816826,-1.939989 6.61951,0.200797 11.0966,3.300042 17.82022,3.300042 6.72362,0 15.09281,-3.133164 22.77028,-2.970038 7.67747,0.163126 15.01266,3.94842 22.77028,3.96005 7.75762,0.01163 11.33879,-3.70748 15.51019,-2.640033 4.1714,1.067447 6.47513,2.128623 7.9201,6.270077 1.44497,4.141454 2.29037,5.845963 3.57342,8.230085 1.28305,2.384122 3.5535,3.638963 3.68667,5.96009 0.13317,2.321127 -0.22325,3.66921 -3.63005,5.610069 -3.4068,1.940859 -11.53494,-1.246023 -17.53024,-0.973428 -5.9953,0.272595 -12.85278,3.44319 -18.4402,2.623447 -5.58742,-0.819743 -9.8745,-2.860533 -15.61028,-3.316624 -5.73578,-0.456091 -12.42297,2.245694 -17.72013,1.996609 -5.29716,-0.249085 -7.85647,-1.989456 -12.36686,-2.016627 -4.51039,-0.02717 -9.38888,2.837915 -13.70346,2.676633 -4.31458,-0.161282 -6.88277,-2.101382 -11.86357,-2.696651 -4.980795,-0.595269 -8.703854,0.814194 -14.00657,1.046633 -5.302717,0.232439 -9.628559,-1.018215 -13.677163,-1.763262 -4.048604,-0.745047 -10.160912,2.583414 -13.583351,-0.216763 -3.422439,-2.800177 -3.156282,-5.873627 -1.923405,-8.850055 1.232877,-2.976428 4.765804,-4.945427 6.210023,-7.223487 1.444219,-2.27806 0.863088,-3.609629 3.63348,-6.366734 z"
       id="path1"
       sodipodi:nodetypes="zzzzzzzzzzzzzzzzzzzzzzzzz" />
    <path
       style="fill:none;stroke:#ad8a43;stroke-width:1.32292;stroke-linecap:butt;stroke-linejoin:miter;stroke-dasharray:none;stroke-opacity:1"
       d="m 73.387979,37.219022 c 0.700045,0 7.350464,-1.283413 11.084034,-1.516761 3.733571,-0.233348 4.083593,1.983458 10.500666,2.216806 6.417071,0.233348 14.700931,-1.633437 14.700931,-1.633437"
       id="path3"
       sodipodi:nodetypes="czzc" />
    <path
       style="fill:none;stroke:#ad8a43;stroke-width:1.32292;stroke-linecap:butt;stroke-linejoin:miter;stroke-dasharray:none;stroke-opacity:1"
       d="m 92.639198,46.202924 c 0.700045,0 7.350464,-1.283413 11.084032,-1.516761 3.73357,-0.233348 4.08359,1.983458 10.50067,2.216806 6.41707,0.233348 14.70093,-1.633437 14.70093,-1.633437"
       id="path4"
       sodipodi:nodetypes="czzc" />
    <path
       style="fill:none;stroke:#ad8a43;stroke-width:1.32292;stroke-linecap:butt;stroke-linejoin:miter;stroke-dasharray:none;stroke-opacity:1"
       d="m 138.9588,38.152414 c 0.70004,0 7.35046,-1.283413 11.08403,-1.516761 3.73357,-0.233348 4.08359,1.983458 10.50067,2.216806 6.41707,0.233348 14.70093,-1.633437 14.70093,-1.633437"
       id="path5"
       sodipodi:nodetypes="czzc" />
    <path
       style="fill:none;stroke:#ad8a43;stroke-width:1.32292;stroke-linecap:butt;stroke-linejoin:miter;stroke-dasharray:none;stroke-opacity:1"
       d="m 165.32714,46.08625 c 0.70004,0 7.35046,-1.283413 11.08403,-1.516761 3.73357,-0.233348 4.08359,1.983458 10.50067,2.216806 6.41707,0.233348 14.70093,-1.633437 14.70093,-1.633437"
       id="path6"
       sodipodi:nodetypes="czzc" />
    <path
       style="fill:#ddb953;fill-opacity:1;stroke:#ad8a43;stroke-width:2.64583;stroke-linecap:butt;stroke-linejoin:miter;stroke-dasharray:none;stroke-opacity:1"
       d="m 48.731673,66.85418 c 6.72376,-4.077595 10.740441,-0.433762 18.02632,-1.100062 8.49957,-0.777292 7.460251,-2.782826 17.723045,-2.859987 4.966295,-0.03734 5.623218,2.813326 14.173592,3.260005 8.55038,0.446679 13.19732,-2.140786 19.81683,-1.939989 6.61951,0.200797 11.0966,3.300042 17.82022,3.300042 6.72362,0 15.09281,-3.133164 22.77028,-2.970038 7.67747,0.163126 15.01266,3.94842 22.77028,3.96005 4.35256,0.0065 13.89592,0.357229 21.18794,-0.365567 5.70462,-0.565452 9.51925,-2.23603 11.78475,-2.274466 5.16141,-0.08757 6.47513,2.128623 7.9201,6.270077 1.44497,4.141454 2.29037,5.845963 3.57342,8.230085 1.28305,2.384122 3.5535,3.638963 3.68667,5.96009 0.13317,2.321127 -0.22325,3.66921 -3.63005,5.610069 -1.8741,1.06768 -9.14141,1.243623 -17.65189,1.627358 -6.83621,0.308242 -14.64361,-2.723425 -17.34085,-2.600786 -5.9953,0.272595 -12.85278,3.44319 -18.4402,2.623447 -5.58742,-0.819743 -9.8745,-2.860533 -15.61028,-3.316624 -5.73578,-0.456091 -12.42297,2.245694 -17.72013,1.996609 -5.29716,-0.249085 -7.85647,-1.989456 -12.36686,-2.016627 -4.51039,-0.02717 -9.38888,2.837915 -13.70346,2.676633 -4.31458,-0.161282 -6.88277,-2.101382 -11.86357,-2.696651 -4.980799,-0.595269 -8.703858,0.814194 -14.006574,1.046633 -2.748177,0.120463 -10.657779,1.657603 -18.045353,1.2582 -6.867041,-0.371261 -6.660514,-3.32255 -15.210977,-3.021462 -4.114037,0.144868 -10.160912,2.583414 -13.583351,-0.216763 -3.422439,-2.800177 -3.156282,-5.873627 -1.923405,-8.850055 1.232877,-2.976428 4.765804,-4.945427 6.210023,-7.223487 1.444219,-2.27806 0.291474,-4.339989 3.63348,-6.366734 z"
       id="path7"
       sodipodi:nodetypes="ssszzzzssszzzssszzzzzzssszzzs" />
    <path
       style="fill:none;stroke:#ad8a43;stroke-width:1.32292;stroke-linecap:butt;stroke-linejoin:miter;stroke-dasharray:none;stroke-opacity:1"
       d="m 60.078889,74.537839 c 0.700045,0 6.139375,-2.438427 9.872945,-2.671775 3.733571,-0.233348 4.083593,1.983458 10.500666,2.216806 6.417075,0.233348 14.700935,-1.633437 14.700935,-1.633437"
       id="path8"
       sodipodi:nodetypes="czzc" />
    <path
       style="fill:none;stroke:#ad8a43;stroke-width:1.32292;stroke-linecap:butt;stroke-linejoin:miter;stroke-dasharray:none;stroke-opacity:1"
       d="m 82.079068,84.016747 c 0.700045,0 7.350466,-1.283413 11.084036,-1.516761 3.73357,-0.233348 4.08359,1.983458 10.500666,2.216806 6.41707,0.233348 14.70093,-1.633437 14.70093,-1.633437"
       id="path9"
       sodipodi:nodetypes="czzc" />
    <path
       style="fill:none;stroke:#ad8a43;stroke-width:1.32292;stroke-linecap:butt;stroke-linejoin:miter;stroke-dasharray:none;stroke-opacity:1"
       d="m 112.06347,74.811223 c 0.70004,0 7.35046,-1.283413 11.08403,-1.516761 3.73357,-0.233348 4.08359,1.983458 10.50067,2.216806 6.41707,0.233348 14.70093,-1.633437 14.70093,-1.633437"
       id="path10"
       sodipodi:nodetypes="czzc" />
    <path
       style="fill:none;stroke:#ad8a43;stroke-width:1.32292;stroke-linecap:butt;stroke-linejoin:miter;stroke-dasharray:none;stroke-opacity:1"
       d="m 141.73185,83.075063 c 0.70004,0 7.35046,-1.283413 11.08403,-1.516761 3.73357,-0.233348 4.08359,1.983458 10.50067,2.216806 6.41707,0.233348 14.70093,-1.633437 14.70093,-1.633437"
       id="path11"
       sodipodi:nodetypes="czzc" />
    <path
       style="fill:#ddb953;fill-opacity:1;stroke:#ad8a43;stroke-width:2.64583;stroke-linecap:butt;stroke-linejoin:miter;stroke-dasharray:none;stroke-opacity:1"
       d="m 29.949157,104.34379 c 3.239804,-1.252 8.716852,0.79508 15.850834,0.19569 6.002739,-0.50434 9.715457,-1.68146 15.820872,-3.02682 8.818311,-1.943177 15.949753,-1.893817 21.540159,-1.12892 4.92059,0.67326 5.623218,2.81333 14.173592,3.26001 8.550376,0.44668 13.197316,-2.14079 19.816826,-1.93999 6.61951,0.2008 11.0966,3.30004 17.82022,3.30004 6.72362,0 15.09281,-3.13316 22.77028,-2.97004 7.67747,0.16313 15.01266,3.94845 22.77028,3.96005 3.62073,0.005 18.7564,-2.61688 29.89408,-3.37088 12.72541,-0.86148 21.49164,0.16161 23.71611,0.73085 4.1714,1.06745 6.47513,2.12862 7.9201,6.27008 1.44497,4.14145 2.29037,5.84596 3.57342,8.23008 1.28305,2.38412 2.89349,3.63897 3.68667,5.96009 0.79318,2.32112 0.18724,4.7148 -3.63005,5.61007 -4.41275,1.03492 -6.73127,-1.23973 -12.89956,-0.89051 -6.56369,0.3716 -13.67218,2.8481 -19.60043,2.60264 -10.73136,-0.44433 -20.57743,-2.80163 -23.13025,-2.68556 -5.9953,0.27259 -12.85278,3.44319 -18.4402,2.62345 -5.58742,-0.81974 -9.8745,-2.86053 -15.61028,-3.31662 -5.73578,-0.45609 -12.42297,2.24569 -17.72013,1.99661 -5.29716,-0.24909 -7.85647,-1.98946 -12.36686,-2.01663 -4.51039,-0.0272 -9.38888,2.83791 -13.70346,2.67663 -4.31458,-0.16128 -6.88277,-2.10138 -11.86357,-2.69665 -4.980795,-0.59527 -8.703854,0.81419 -14.00657,1.04663 -5.302717,0.23244 -9.628559,-1.01821 -13.677163,-1.76326 -1.806729,-0.33249 -8.598363,-1.40671 -18.97688,-1.10388 -5.596243,0.16329 -11.643078,1.99523 -17.041318,2.60852 -7.204869,0.81853 -13.531268,-0.8414 -14.60682,-1.7214 -3.422442,-2.80018 -3.156282,-5.87363 -1.923405,-8.85006 1.232877,-2.97642 4.765804,-4.94542 6.210023,-7.22348 1.444219,-2.27806 -0.01231,-4.95785 3.63348,-6.36674 z"
       id="path12"
       sodipodi:nodetypes="sssszzzzssszzzsssszzzzzzzsssszzs" />
    <path
       style="fill:none;stroke:#ad8a43;stroke-width:1.32292;stroke-linecap:butt;stroke-linejoin:miter;stroke-dasharray:none;stroke-opacity:1"
       d="m 63.35401,121.79977 c 0.700045,0 7.350464,-1.28342 11.084034,-1.51677 3.733571,-0.23334 4.083593,1.98346 10.500666,2.21681 6.417071,0.23335 14.700931,-1.63344 14.700931,-1.63344"
       id="path13"
       sodipodi:nodetypes="czzc" />
    <path
       style="fill:none;stroke:#ad8a43;stroke-width:1.32292;stroke-linecap:butt;stroke-linejoin:miter;stroke-dasharray:none;stroke-opacity:1"
       d="m 89.138975,110.24903 c 0.700045,0 7.350466,-1.28342 11.084035,-1.51676 3.73357,-0.23335 4.08359,1.98345 10.50067,2.2168 6.41707,0.23335 14.70093,-1.63343 14.70093,-1.63343"
       id="path14"
       sodipodi:nodetypes="czzc" />
    <path
       style="fill:none;stroke:#ad8a43;stroke-width:1.32292;stroke-linecap:butt;stroke-linejoin:miter;stroke-dasharray:none;stroke-opacity:1"
       d="m 146.65929,111.53245 c 0.70004,0 7.35046,-1.28342 11.08403,-1.51676 3.73357,-0.23335 4.08359,1.98345 10.50067,2.2168 6.41707,0.23335 14.70093,-1.63343 14.70093,-1.63343"
       id="path15"
       sodipodi:nodetypes="czzc" />
    <path
       style="fill:none;stroke:#ad8a43;stroke-width:1.32292;stroke-linecap:butt;stroke-linejoin:miter;stroke-dasharray:none;stroke-opacity:1"
       d="m 174.19437,121.33306 c 0.70004,0 7.35046,-1.28341 11.08403,-1.51676 3.73357,-0.23335 4.08359,1.98346 10.50067,2.21681 6.41707,0.23335 14.70093,-1.63344 14.70093,-1.63344"
       id="path16"
       sodipodi:nodetypes="czzc" />
    <path
       style="fill:none;stroke:#ad8a43;stroke-width:1.32292;stroke-linecap:butt;stroke-linejoin:miter;stroke-dasharray:none;stroke-opacity:1"
       d="m 178.6923,75.979976 c 0.70004,0 7.35046,-1.283413 11.08403,-1.516761 3.73357,-0.233348 4.08359,1.983458 10.50067,2.216806 6.41707,0.233348 14.70093,-1.633437 14.70093,-1.633437"
       id="path17"
       sodipodi:nodetypes="czzc" />
    <path
       style="fill:none;stroke:#ad8a43;stroke-width:1.32292;stroke-linecap:butt;stroke-linejoin:miter;stroke-dasharray:none;stroke-opacity:1"
       d="m 33.252105,113.63258 c 0.700045,0 7.350464,-1.28342 11.084034,-1.51677 3.733571,-0.23334 4.083593,1.98346 10.500666,2.21681 6.417071,0.23335 14.700931,-1.63344 14.700931,-1.63344"
       id="path18"
       sodipodi:nodetypes="czzc" />
    <path
       style="fill:none;stroke:#ad8a43;stroke-width:1.32292;stroke-linecap:butt;stroke-linejoin:miter;stroke-dasharray:none;stroke-opacity:1"
       d="m 198.46257,111.53245 c 0.70004,0 7.35046,-1.28342 11.08403,-1.51677 3.73357,-0.23334 4.08359,1.98346 10.50067,2.21681 6.41707,0.23335 14.70093,-1.63344 14.70093,-1.63344"
       id="path19"
       sodipodi:nodetypes="czzc" />
    <path
       style="fill:none;stroke:#ad8a43;stroke-width:1.32292;stroke-linecap:butt;stroke-linejoin:miter;stroke-dasharray:none;stroke-opacity:1"
       d="m 115.97401,119.81631 c 0.70005,0 7.35047,-1.28342 11.08403,-1.51676 3.73357,-0.23335 4.08359,1.98345 10.50067,2.2168 6.41707,0.23335 14.70093,-1.63343 14.70093,-1.63343"
       id="path20"
       sodipodi:nodetypes="czzc" />
    <path
       style="fill:#ddb953;fill-opacity:1;stroke:#ad8a43;stroke-width:2.64583;stroke-linecap:butt;stroke-linejoin:miter;stroke-dasharray:none;stroke-opacity:1"
       d="m 66.990824,242.07709 c 2.770392,2.75711 11.206443,4.12319 16.170198,3.96005 4.963755,-0.16314 5.623218,-2.81332 14.173592,-3.26 8.550376,-0.44668 13.197316,2.14078 19.816826,1.93999 6.61951,-0.2008 11.0966,-3.30005 17.82022,-3.30005 6.72362,0 15.09281,3.13317 22.77028,2.97004 7.67747,-0.16312 15.01266,-3.94842 22.77028,-3.96005 7.75762,-0.0116 11.33879,3.70748 15.51019,2.64004 4.1714,-1.06745 6.47513,-2.12863 7.9201,-6.27008 1.44497,-4.14146 2.29037,-5.84596 3.57342,-8.23009 1.28305,-2.38412 3.5535,-3.63896 3.68667,-5.96009 0.13317,-2.32112 -0.22325,-3.66921 -3.63005,-5.61007 -3.4068,-1.94085 -11.53494,1.24603 -17.53024,0.97343 -5.9953,-0.27259 -12.85278,-3.44319 -18.4402,-2.62344 -5.58742,0.81974 -9.8745,2.86053 -15.61028,3.31662 -5.73578,0.45609 -12.42297,-2.24569 -17.72013,-1.99661 -5.29716,0.24909 -7.85647,1.98946 -12.36686,2.01663 -4.51039,0.0272 -9.38888,-2.83792 -13.70346,-2.67664 -4.31458,0.16129 -6.88277,2.10139 -11.86357,2.69666 -4.980795,0.59526 -8.703854,-0.8142 -14.00657,-1.04664 -5.302717,-0.23244 -9.628559,1.01822 -13.677163,1.76326 -4.048604,0.74505 -10.160912,-2.58341 -13.583351,0.21677 -3.422439,2.80017 -3.156282,5.87362 -1.923405,8.85005 1.232877,2.97643 4.765804,4.94543 6.210023,7.22349 1.444219,2.27806 0.863088,3.60963 3.63348,6.36673 z"
       id="path21"
       sodipodi:nodetypes="zzzzzzzzzzzzzzzzzzzzzzzzz" />
    <path
       style="fill:none;stroke:#ad8a43;stroke-width:1.32292;stroke-linecap:butt;stroke-linejoin:miter;stroke-dasharray:none;stroke-opacity:1"
       d="m 73.387979,234.88844 c 0.700045,0 7.350464,1.28341 11.084034,1.51676 3.733571,0.23335 4.083593,-1.98346 10.500666,-2.2168 6.417071,-0.23335 14.700931,1.63343 14.700931,1.63343"
       id="path22"
       sodipodi:nodetypes="czzc" />
    <path
       style="fill:none;stroke:#ad8a43;stroke-width:1.32292;stroke-linecap:butt;stroke-linejoin:miter;stroke-dasharray:none;stroke-opacity:1"
       d="m 92.639198,225.90454 c 0.700045,0 7.350464,1.28341 11.084032,1.51676 3.73357,0.23335 4.08359,-1.98346 10.50067,-2.21681 6.41707,-0.23334 14.70093,1.63344 14.70093,1.63344"
       id="path23"
       sodipodi:nodetypes="czzc" />
    <path
       style="fill:none;stroke:#ad8a43;stroke-width:1.32292;stroke-linecap:butt;stroke-linejoin:miter;stroke-dasharray:none;stroke-opacity:1"
       d="m 138.9588,233.95505 c 0.70004,0 7.35046,1.28341 11.08403,1.51676 3.73357,0.23335 4.08359,-1.98346 10.50067,-2.21681 6.41707,-0.23334 14.70093,1.63344 14.70093,1.63344"
       id="path24"
       sodipodi:nodetypes="czzc" />
    <path
       style="fill:none;stroke:#ad8a43;stroke-width:1.32292;stroke-linecap:butt;stroke-linejoin:miter;stroke-dasharray:none;stroke-opacity:1"
       d="m 165.32714,226.02121 c 0.70004,0 7.35046,1.28342 11.08403,1.51676 3.73357,0.23335 4.08359,-1.98345 10.50067,-2.2168 6.41707,-0.23335 14.70093,1.63343 14.70093,1.63343"
       id="path25"
       sodipodi:nodetypes="czzc" />
    <path
       style="fill:#ddb953;fill-opacity:1;stroke:#ad8a43;stroke-width:2.64583;stroke-linecap:butt;stroke-linejoin:miter;stroke-dasharray:none;stroke-opacity:1"
       d="m 48.731673,205.25323 c 6.72376,4.07762 10.740441,0.43377 18.02632,1.10007 8.49957,0.7773 7.460251,2.78285 17.723045,2.86001 4.966295,0.0373 5.623218,-2.81334 14.173592,-3.26003 8.55038,-0.44668 13.19732,2.1408 19.81683,1.94 6.61951,-0.2008 11.0966,-3.30006 17.82022,-3.30006 6.72362,0 15.09281,3.13318 22.77028,2.97006 7.67747,-0.16313 15.01266,-3.94845 22.77028,-3.96008 4.35256,-0.006 13.89592,-0.35723 21.18794,0.36557 5.70462,0.56546 9.51925,2.23605 11.78475,2.27448 5.16141,0.0876 6.47513,-2.12863 7.9201,-6.27011 1.44497,-4.14148 2.29037,-5.846 3.57342,-8.23013 1.28305,-2.38414 3.5535,-3.63899 3.68667,-5.96012 0.13317,-2.32115 -0.22325,-3.66924 -3.63005,-5.61011 -1.8741,-1.06768 -9.14141,-1.24363 -17.65189,-1.62736 -6.83621,-0.30825 -14.64361,2.72344 -17.34085,2.6008 -5.9953,-0.2726 -12.85278,-3.44321 -18.4402,-2.62346 -5.58742,0.81974 -9.8745,2.86054 -15.61028,3.31664 -5.73578,0.45609 -12.42297,-2.24571 -17.72013,-1.99662 -5.29716,0.24908 -7.85647,1.98946 -12.36686,2.01664 -4.51039,0.0272 -9.38888,-2.83793 -13.70346,-2.67665 -4.31458,0.16128 -6.88277,2.10139 -11.86357,2.69666 -4.980799,0.59528 -8.703858,-0.81419 -14.006574,-1.04664 -2.748177,-0.12046 -10.657779,-1.65761 -18.045353,-1.2582 -6.867041,0.37126 -6.660514,3.32257 -15.210977,3.02148 -4.114037,-0.14487 -10.160912,-2.58343 -13.583351,0.21676 -3.422439,2.80019 -3.156282,5.87366 -1.923405,8.85011 1.232877,2.97644 4.765804,4.94545 6.210023,7.22352 1.444219,2.27808 0.291474,4.34002 3.63348,6.36677 z"
       id="path26"
       sodipodi:nodetypes="ssszzzzssszzzssszzzzzzssszzzs" />
    <path
       style="fill:none;stroke:#ad8a43;stroke-width:1.32292;stroke-linecap:butt;stroke-linejoin:miter;stroke-dasharray:none;stroke-opacity:1"
       d="m 60.078889,197.56953 c 0.700045,0 6.139375,2.43844 9.872945,2.67179 3.733571,0.23335 4.083593,-1.98347 10.500666,-2.21682 6.417075,-0.23335 14.700935,1.63345 14.700935,1.63345"
       id="path27"
       sodipodi:nodetypes="czzc" />
    <path
       style="fill:none;stroke:#ad8a43;stroke-width:1.32292;stroke-linecap:butt;stroke-linejoin:miter;stroke-dasharray:none;stroke-opacity:1"
       d="m 82.079068,188.09057 c 0.700045,0 7.350466,1.28342 11.084036,1.51677 3.73357,0.23335 4.08359,-1.98347 10.500666,-2.21682 6.41707,-0.23335 14.70093,1.63345 14.70093,1.63345"
       id="path28"
       sodipodi:nodetypes="czzc" />
    <path
       style="fill:none;stroke:#ad8a43;stroke-width:1.32292;stroke-linecap:butt;stroke-linejoin:miter;stroke-dasharray:none;stroke-opacity:1"
       d="m 112.06347,197.29615 c 0.70004,0 7.35046,1.28342 11.08403,1.51677 3.73357,0.23335 4.08359,-1.98347 10.50067,-2.21682 6.41707,-0.23335 14.70093,1.63344 14.70093,1.63344"
       id="path29"
       sodipodi:nodetypes="czzc" />
    <path
       style="fill:none;stroke:#ad8a43;stroke-width:1.32292;stroke-linecap:butt;stroke-linejoin:miter;stroke-dasharray:none;stroke-opacity:1"
       d="m 141.73185,189.03226 c 0.70004,0 7.35046,1.28342 11.08403,1.51677 3.73357,0.23335 4.08359,-1.98347 10.50067,-2.21682 6.41707,-0.23335 14.70093,1.63345 14.70093,1.63345"
       id="path30"
       sodipodi:nodetypes="czzc" />
    <path
       style="fill:#ddb953;fill-opacity:1;stroke:#ad8a43;stroke-width:2.64583;stroke-linecap:butt;stroke-linejoin:miter;stroke-dasharray:none;stroke-opacity:1"
       d="m 29.949157,167.23423 c 3.239804,1.25201 8.716852,-0.79508 15.850834,-0.19569 6.002739,0.50434 9.715457,1.68147 15.820872,3.02684 8.818311,1.94319 15.949753,1.89383 21.540159,1.12893 4.92059,-0.67327 5.623218,-2.81335 14.173592,-3.26003 8.550376,-0.44669 13.197316,2.1408 19.816826,1.94 6.61951,-0.2008 11.0966,-3.30006 17.82022,-3.30006 6.72362,0 15.09281,3.13318 22.77028,2.97006 7.67747,-0.16313 15.01266,-3.94848 22.77028,-3.96008 3.62073,-0.005 18.7564,2.6169 29.89408,3.3709 12.72541,0.86149 21.49164,-0.16161 23.71611,-0.73085 4.1714,-1.06746 6.47513,-2.12863 7.9201,-6.27012 1.44497,-4.14147 2.29037,-5.84599 3.57342,-8.23012 1.28305,-2.38414 2.89349,-3.63899 3.68667,-5.96013 0.79318,-2.32113 0.18724,-4.71482 -3.63005,-5.6101 -4.41275,-1.03493 -6.73127,1.23974 -12.89956,0.89052 -6.56369,-0.37161 -13.67218,-2.84812 -19.60043,-2.60266 -10.73136,0.44433 -20.57743,2.80165 -23.13025,2.68558 -5.9953,-0.2726 -12.85278,-3.44321 -18.4402,-2.62347 -5.58742,0.81975 -9.8745,2.86055 -15.61028,3.31664 -5.73578,0.45609 -12.42297,-2.2457 -17.72013,-1.99662 -5.29716,0.24909 -7.85647,1.98947 -12.36686,2.01664 -4.51039,0.0272 -9.38888,-2.83793 -13.70346,-2.67665 -4.31458,0.16129 -6.88277,2.1014 -11.86357,2.69667 -4.980795,0.59528 -8.703854,-0.81419 -14.00657,-1.04664 -5.302717,-0.23244 -9.628559,1.01822 -13.677163,1.76328 -1.806729,0.33249 -8.598363,1.40671 -18.97688,1.10388 -5.596243,-0.16329 -11.643078,-1.99524 -17.041318,-2.60853 -7.204869,-0.81854 -13.531268,0.8414 -14.60682,1.72141 -3.422442,2.80019 -3.156282,5.87366 -1.923405,8.85011 1.232877,2.97643 4.765804,4.94544 6.210023,7.22352 1.444219,2.27807 -0.01231,4.95788 3.63348,6.36677 z"
       id="path31"
       sodipodi:nodetypes="sssszzzzssszzzsssszzzzzzzsssszzs" />
    <path
       style="fill:none;stroke:#ad8a43;stroke-width:1.32292;stroke-linecap:butt;stroke-linejoin:miter;stroke-dasharray:none;stroke-opacity:1"
       d="m 63.35401,149.77816 c 0.700045,0 7.350464,1.28342 11.084034,1.51677 3.733571,0.23334 4.083593,-1.98347 10.500666,-2.21682 6.417071,-0.23335 14.700931,1.63345 14.700931,1.63345"
       id="path32"
       sodipodi:nodetypes="czzc" />
    <path
       style="fill:none;stroke:#ad8a43;stroke-width:1.32292;stroke-linecap:butt;stroke-linejoin:miter;stroke-dasharray:none;stroke-opacity:1"
       d="m 89.138975,161.32896 c 0.700045,0 7.350466,1.28343 11.084035,1.51677 3.73357,0.23335 4.08359,-1.98346 10.50067,-2.21681 6.41707,-0.23335 14.70093,1.63343 14.70093,1.63343"
       id="path33"
       sodipodi:nodetypes="czzc" />
    <path
       style="fill:none;stroke:#ad8a43;stroke-width:1.32292;stroke-linecap:butt;stroke-linejoin:miter;stroke-dasharray:none;stroke-opacity:1"
       d="m 146.65929,160.04553 c 0.70004,0 7.35046,1.28343 11.08403,1.51677 3.73357,0.23335 4.08359,-1.98346 10.50067,-2.21681 6.41707,-0.23335 14.70093,1.63344 14.70093,1.63344"
       id="path34"
       sodipodi:nodetypes="czzc" />
    <path
       style="fill:none;stroke:#ad8a43;stroke-width:1.32292;stroke-linecap:butt;stroke-linejoin:miter;stroke-dasharray:none;stroke-opacity:1"
       d="m 174.19437,150.24487 c 0.70004,0 7.35046,1.28341 11.08403,1.51676 3.73357,0.23336 4.08359,-1.98346 10.50067,-2.21682 6.41707,-0.23335 14.70093,1.63345 14.70093,1.63345"
       id="path35"
       sodipodi:nodetypes="czzc" />
    <path
       style="fill:none;stroke:#ad8a43;stroke-width:1.32292;stroke-linecap:butt;stroke-linejoin:miter;stroke-dasharray:none;stroke-opacity:1"
       d="m 178.6923,196.12739 c 0.70004,0 7.35046,1.28342 11.08403,1.51677 3.73357,0.23334 4.08359,-1.98347 10.50067,-2.21682 6.41707,-0.23335 14.70093,1.63344 14.70093,1.63344"
       id="path36"
       sodipodi:nodetypes="czzc" />
    <path
       style="fill:none;stroke:#ad8a43;stroke-width:1.32292;stroke-linecap:butt;stroke-linejoin:miter;stroke-dasharray:none;stroke-opacity:1"
       d="m 33.252105,157.94539 c 0.700045,0 7.350464,1.28343 11.084034,1.51678 3.733571,0.23334 4.083593,-1.98347 10.500666,-2.21682 6.417071,-0.23336 14.700931,1.63345 14.700931,1.63345"
       id="path37"
       sodipodi:nodetypes="czzc" />
    <path
       style="fill:none;stroke:#ad8a43;stroke-width:1.32292;stroke-linecap:butt;stroke-linejoin:miter;stroke-dasharray:none;stroke-opacity:1"
       d="m 198.46257,160.04553 c 0.70004,0 7.35046,1.28343 11.08403,1.51678 3.73357,0.23334 4.08359,-1.98347 10.50067,-2.21682 6.41707,-0.23335 14.70093,1.63345 14.70093,1.63345"
       id="path38"
       sodipodi:nodetypes="czzc" />
    <path
       style="fill:none;stroke:#ad8a43;stroke-width:1.32292;stroke-linecap:butt;stroke-linejoin:miter;stroke-dasharray:none;stroke-opacity:1"
       d="m 115.97401,151.76162 c 0.70005,0 7.35047,1.28343 11.08403,1.51677 3.73357,0.23336 4.08359,-1.98346 10.50067,-2.21681 6.41707,-0.23335 14.70093,1.63344 14.70093,1.63344"
       id="path39"
       sodipodi:nodetypes="czzc" />
  </g>
</svg>
