<?xml version="1.0" encoding="UTF-8" standalone="no"?>
<!-- Created with Inkscape (http://www.inkscape.org/) -->

<svg
   width="2048"
   height="2047.9999"
   viewBox="0 0 541.86665 541.86663"
   version="1.1"
   id="svg1"
   inkscape:export-filename="forest.svg"
   inkscape:export-xdpi="33.78"
   inkscape:export-ydpi="33.78"
   xmlns:inkscape="http://www.inkscape.org/namespaces/inkscape"
   xmlns:sodipodi="http://sodipodi.sourceforge.net/DTD/sodipodi-0.dtd"
   xmlns="http://www.w3.org/2000/svg"
   xmlns:svg="http://www.w3.org/2000/svg"
   xmlns:rdf="http://www.w3.org/1999/02/22-rdf-syntax-ns#"
   xmlns:cc="http://creativecommons.org/ns#"
   xmlns:dc="http://purl.org/dc/elements/1.1/">
  <sodipodi:namedview
     id="base"
     pagecolor="#ffffff"
     bordercolor="#000000"
     borderopacity="0.3"
     inkscape:pageopacity="0.0"
     inkscape:pageshadow="2"
     inkscape:zoom="0.35"
     inkscape:cx="1234.2857"
     inkscape:cy="1138.5714"
     inkscape:document-units="mm"
     inkscape:showpageshadow="0"
     inkscape:pagecheckerboard="0"
     inkscape:deskcolor="#505050"
     inkscape:window-width="1920"
     inkscape:window-height="1017"
     inkscape:window-x="-8"
     inkscape:window-y="-8"
     inkscape:window-maximized="1"
     inkscape:current-layer="svg1" />
  <defs
     id="defs1" />
  <metadata
     id="metadata1">
    <rdf:RDF>
      <cc:Work
         rdf:about="">
        <dc:format>image/svg+xml</dc:format>
        <dc:type
           rdf:resource="http://purl.org/dc/dcmitype/StillImage" />
      </cc:Work>
    </rdf:RDF>
  </metadata>
  <rect
     style="fill:#28b328;fill-opacity:1;stroke:#785757;stroke-width:0;stroke-linecap:round;stroke-linejoin:round;stroke-dashoffset:165.381;paint-order:markers fill stroke"
     id="rect1"
     width="548.82141"
     height="549.57739"
     x="1.4759247e-07"
     y="-1.511905" />
  <ellipse
     style="fill:#23c623;fill-opacity:1;fill-rule:evenodd;stroke-width:0.171275"
     id="path1"
     cx="-26.344839"
     cy="485.57666"
     rx="9.0714283"
     ry="16.630953"
     transform="rotate(-8.2501768)" />
  <ellipse
     style="fill:#1ea91e;fill-opacity:1;fill-rule:evenodd;stroke-width:0.211932"
     id="ellipse10"
     cx="107.67018"
     cy="-419.69528"
     rx="13.121902"
     ry="17.603561"
     transform="matrix(-0.97086534,0.23962573,-0.46275413,-0.88648667,0,0)" />
  <ellipse
     style="fill:#1ea91e;fill-opacity:1;fill-rule:evenodd;stroke-width:0.197786"
     id="ellipse11"
     cx="77.327682"
     cy="305.19116"
     rx="11.306741"
     ry="17.793344"
     transform="matrix(0.99856639,0.05352722,-0.08093887,0.99671907,0,0)" />
  <ellipse
     style="fill:#1ea91e;fill-opacity:1;fill-rule:evenodd;stroke-width:0.218154"
     id="ellipse12"
     cx="-28.611996"
     cy="204.8248"
     rx="13.849749"
     ry="17.672094"
     transform="matrix(0.97623479,-0.21671556,0.45898112,0.88844602,0,0)" />
  <ellipse
     style="fill:#1ea91e;fill-opacity:1;fill-rule:evenodd;stroke-width:0.212262"
     id="ellipse13"
     cx="-25.155418"
     cy="76.887672"
     rx="12.17128"
     ry="19.037596"
     transform="matrix(0.37330642,-0.9277081,0.75638807,0.65412314,0,0)" />
  <ellipse
     style="fill:#1ea91e;fill-opacity:1;fill-rule:evenodd;stroke-width:0.239357"
     id="ellipse14"
     cx="-231.47488"
     cy="270.75735"
     rx="13.443254"
     ry="21.917578"
     transform="matrix(0.29379033,-0.95586989,0.91853093,0.39534913,0,0)" />
  <ellipse
     style="fill:#23c623;fill-opacity:1;fill-rule:evenodd;stroke-width:0.23665"
     id="ellipse15"
     cx="-433.95026"
     cy="167.07159"
     rx="15.814214"
     ry="18.212523"
     transform="matrix(-0.06551795,-0.99785139,0.99123202,-0.13213285,0,0)" />
  <ellipse
     style="fill:#1ea91e;fill-opacity:1;fill-rule:evenodd;stroke-width:0.202696"
     id="ellipse16"
     cx="-504.70026"
     cy="122.80135"
     rx="10.961309"
     ry="19.276787"
     transform="rotate(-91.284153)" />
  <ellipse
     style="fill:#1ea91e;fill-opacity:1;fill-rule:evenodd;stroke-width:0.171275"
     id="ellipse17"
     cx="-202.19083"
     cy="-501.67523"
     rx="9.0714283"
     ry="16.630953"
     transform="rotate(176.06257)" />
  <ellipse
     style="fill:#23c623;fill-opacity:1;fill-rule:evenodd;stroke-width:0.171275"
     id="ellipse18"
     cx="-265.20523"
     cy="208.12169"
     rx="9.0714283"
     ry="16.630953"
     transform="rotate(-91.284153)" />
  <ellipse
     style="fill:#23c623;fill-opacity:1;fill-rule:evenodd;stroke-width:0.205935"
     id="ellipse19"
     cx="-111.1713"
     cy="471.00696"
     rx="10.960761"
     ry="19.898699"
     transform="matrix(0.76396862,-0.6452534,0.74995398,0.66149,0,0)" />
  <ellipse
     style="fill:#1ea91e;fill-opacity:1;fill-rule:evenodd;stroke-width:0.200386"
     id="ellipse20"
     cx="-134.66833"
     cy="210.23822"
     rx="10.483624"
     ry="19.698338"
     transform="matrix(0.26829556,-0.96333665,0.96746311,0.25301212,0,0)" />
  <ellipse
     style="fill:#23c623;fill-opacity:1;fill-rule:evenodd;stroke-width:0.227003"
     id="ellipse21"
     cx="-89.736038"
     cy="-259.02628"
     rx="13.228953"
     ry="20.032917"
     transform="matrix(-0.99963639,0.02696447,-0.02908503,-0.99957694,0,0)" />
  <ellipse
     style="fill:#23c623;fill-opacity:1;fill-rule:evenodd;stroke-width:0.227026"
     id="ellipse22"
     cx="-213.08319"
     cy="100.87569"
     rx="12.036769"
     ry="22.021391"
     transform="matrix(-0.63513809,-0.77239861,0.76671425,-0.64198852,0,0)" />
  <ellipse
     style="fill:#23c623;fill-opacity:1;fill-rule:evenodd;stroke-width:0.190611"
     id="ellipse23"
     cx="-160.16216"
     cy="17.962019"
     rx="10.416167"
     ry="17.938841"
     transform="matrix(-0.52640664,-0.85023294,0.73870874,-0.67402478,0,0)" />
  <ellipse
     style="fill:#1ea91e;fill-opacity:1;fill-rule:evenodd;stroke-width:0.222619"
     id="ellipse24"
     cx="192.80031"
     cy="315.49838"
     rx="12.457067"
     ry="20.460451"
     transform="matrix(0.42093886,-0.90708901,0.66362845,0.74806235,0,0)" />
  <ellipse
     style="fill:#23c623;fill-opacity:1;fill-rule:evenodd;stroke-width:0.171275"
     id="ellipse25"
     cx="-67.301102"
     cy="300.18488"
     rx="9.0714283"
     ry="16.630953"
     transform="rotate(-67.463207)" />
  <ellipse
     style="fill:#1ea91e;fill-opacity:1;fill-rule:evenodd;stroke-width:0.171275"
     id="ellipse26"
     cx="-94.968254"
     cy="400.90302"
     rx="9.0714283"
     ry="16.630953"
     transform="rotate(-63.073127)" />
  <ellipse
     style="fill:#1ea91e;fill-opacity:1;fill-rule:evenodd;stroke-width:0.217472"
     id="ellipse27"
     cx="-363.54221"
     cy="-49.756199"
     rx="11.870091"
     ry="20.490681"
     transform="matrix(-0.94292171,-0.33301448,0.38880422,-0.9213204,0,0)" />
  <ellipse
     style="fill:#23c623;fill-opacity:1;fill-rule:evenodd;stroke-width:0.171275"
     id="ellipse28"
     cx="-315.78296"
     cy="186.61105"
     rx="9.0714283"
     ry="16.630953"
     transform="rotate(-142.54902)" />
  <ellipse
     style="fill:#1ea91e;fill-opacity:1;fill-rule:evenodd;stroke-width:0.171275"
     id="ellipse29"
     cx="-33.883766"
     cy="124.21102"
     rx="9.0714283"
     ry="16.630953"
     transform="rotate(-91.284153)" />
  <ellipse
     style="fill:#23c623;fill-opacity:1;fill-rule:evenodd;stroke-width:0.253748"
     id="ellipse30"
     cx="-492.21274"
     cy="-40.975471"
     rx="13.989928"
     ry="23.669846"
     transform="matrix(-0.89088494,-0.45422904,0.75952901,-0.65047343,0,0)" />
  <ellipse
     style="fill:#1ea91e;fill-opacity:1;fill-rule:evenodd;stroke-width:0.195419"
     id="ellipse31"
     cx="-478.41776"
     cy="-14.41349"
     rx="10.102954"
     ry="19.439625"
     transform="matrix(-0.73184089,-0.68147554,0.8303429,-0.55725279,0,0)" />
  <ellipse
     style="fill:#1ea91e;fill-opacity:1;fill-rule:evenodd;stroke-width:0.235567"
     id="ellipse32"
     cx="-142.03641"
     cy="506.77689"
     rx="14.342738"
     ry="19.897705"
     transform="matrix(0.25999408,-0.96561021,0.82850692,0.55997882,0,0)" />
  <ellipse
     style="fill:#1ea91e;fill-opacity:1;fill-rule:evenodd;stroke-width:0.203818"
     id="ellipse33"
     cx="-364.62866"
     cy="-476.06314"
     rx="12.819961"
     ry="16.664944"
     transform="matrix(-0.99973925,-0.02283488,0.06790769,-0.99769161,0,0)" />
  <ellipse
     style="fill:#23c623;fill-opacity:1;fill-rule:evenodd;stroke-width:0.222068"
     id="ellipse34"
     cx="-639.5802"
     cy="319.44666"
     rx="13.63658"
     ry="18.598246"
     transform="matrix(-0.25963201,-0.96570763,0.86949534,-0.49394114,0,0)" />
  <ellipse
     style="fill:#23c623;fill-opacity:1;fill-rule:evenodd;stroke-width:0.183745"
     id="ellipse35"
     cx="259.44894"
     cy="511.92801"
     rx="9.3026695"
     ry="18.665054"
     transform="matrix(0.88016733,-0.47466353,0.38372147,0.92344888,0,0)" />
  <ellipse
     style="fill:#1ea91e;fill-opacity:1;fill-rule:evenodd;stroke-width:0.209768"
     id="ellipse36"
     cx="-318.87787"
     cy="476.48486"
     rx="13.607142"
     ry="16.630953"
     transform="rotate(-91.284153)" />
  <ellipse
     style="fill:#1ea91e;fill-opacity:1;fill-rule:evenodd;stroke-width:0.196205"
     id="ellipse37"
     cx="-383.58734"
     cy="244.97897"
     rx="9.8721714"
     ry="20.054462"
     transform="matrix(-0.64922203,-0.76059894,0.88501431,-0.46556381,0,0)" />
  <ellipse
     style="fill:#23c623;fill-opacity:1;fill-rule:evenodd;stroke-width:0.200272"
     id="ellipse38"
     cx="197.91484"
     cy="357.92795"
     rx="10.607228"
     ry="19.446562"
     transform="matrix(0.68951876,-0.72426783,0.72405117,0.68974626,0,0)" />
  <ellipse
     style="fill:#1ea91e;fill-opacity:1;fill-rule:evenodd;stroke-width:0.171275"
     id="ellipse39"
     cx="257.77542"
     cy="405.15036"
     rx="9.0714283"
     ry="16.630953"
     transform="rotate(-53.323307)" />
</svg>
