<?xml version="1.0" encoding="UTF-8" standalone="no"?>
<!-- Created with Inkscape (http://www.inkscape.org/) -->

<svg
   width="2047.9999"
   height="2047.9999"
   viewBox="0 0 541.86663 541.86663"
   version="1.1"
   id="svg1"
   inkscape:version="1.3 (0e150ed6c4, 2023-07-21)"
   inkscape:export-filename="mountains.svg"
   inkscape:export-xdpi="33.78"
   inkscape:export-ydpi="33.78"
   xmlns:inkscape="http://www.inkscape.org/namespaces/inkscape"
   xmlns:sodipodi="http://sodipodi.sourceforge.net/DTD/sodipodi-0.dtd"
   xmlns="http://www.w3.org/2000/svg"
   xmlns:svg="http://www.w3.org/2000/svg">
  <sodipodi:namedview
     id="namedview1"
     pagecolor="#505050"
     bordercolor="#eeeeee"
     borderopacity="1"
     inkscape:showpageshadow="0"
     inkscape:pageopacity="0"
     inkscape:pagecheckerboard="0"
     inkscape:deskcolor="#505050"
     inkscape:document-units="mm"
     inkscape:zoom="0.20043945"
     inkscape:cx="1718.7235"
     inkscape:cy="1274.6991"
     inkscape:window-width="1920"
     inkscape:window-height="1017"
     inkscape:window-x="-8"
     inkscape:window-y="-8"
     inkscape:window-maximized="1"
     inkscape:current-layer="layer1" />
  <defs
     id="defs1" />
  <g
     inkscape:label="Layer 1"
     inkscape:groupmode="layer"
     id="layer1">
    <rect
       style="fill:#626262;fill-opacity:1;stroke:#46aaaa;stroke-width:0;stroke-linecap:round;stroke-linejoin:round;stroke-dasharray:none;stroke-dashoffset:165.381;paint-order:markers fill stroke"
       id="rect1"
       width="563.64691"
       height="572.88702"
       x="-7.9200974"
       y="-15.840195" />
    <path
       style="fill:none;stroke:#4c4c4c;stroke-width:3.96875;stroke-linecap:round;stroke-linejoin:round;stroke-dasharray:none;stroke-opacity:1"
       d="m 31.735342,45.736229 c 0,0 56.790574,14.799712 115.740658,77.471571 58.95008,62.67186 76.20818,127.76152 76.20818,127.76152"
       id="path1"
       sodipodi:nodetypes="czc" />
    <path
       style="fill:none;stroke:#4c4c4c;stroke-width:3.96875;stroke-linecap:round;stroke-linejoin:round;stroke-dasharray:none;stroke-opacity:1"
       d="M 350.95555,28.935166 C 339.75484,51.336582 324.82057,78.404958 315.48665,125.07458 306.15273,171.7442 296.8188,230.54794 296.8188,230.54794"
       id="path2"
       sodipodi:nodetypes="czc" />
    <path
       style="fill:none;stroke:#4c4c4c;stroke-width:3.96875;stroke-linecap:round;stroke-linejoin:round;stroke-dasharray:none;stroke-opacity:1"
       d="m 526.43333,142.80904 c -13.2837,8.30231 -35.42029,9.73432 -72.8472,33.11473 -37.4269,23.38041 -61.88335,59.6312 -64.47473,60.66776"
       id="path3"
       sodipodi:nodetypes="czc" />
    <path
       style="fill:none;stroke:#4c4c4c;stroke-width:3.96875;stroke-linecap:round;stroke-linejoin:round;stroke-dasharray:none;stroke-opacity:1"
       d="m 502.16511,465.76281 c -6.53373,-15.86767 -17.73444,-35.4689 -54.13674,-61.60389 -36.4023,-26.13499 -106.40674,-64.40408 -106.40674,-64.40408"
       id="path4"
       sodipodi:nodetypes="czc" />
    <path
       style="fill:none;stroke:#4c4c4c;stroke-width:3.96875;stroke-linecap:round;stroke-linejoin:round;stroke-dasharray:none;stroke-opacity:1"
       d="m 209.0799,512.43245 c 12.1341,-13.0675 42.93605,-44.80285 56.00355,-79.33838 13.0675,-34.53553 10.2673,-40.13587 10.2673,-40.13587"
       id="path5"
       sodipodi:nodetypes="czc" />
    <path
       style="fill:none;stroke:#4c4c4c;stroke-width:3.96875;stroke-linecap:round;stroke-linejoin:round;stroke-dasharray:none;stroke-opacity:1"
       d="m 212.10656,351.55895 c -32.66873,0 -63.74015,1.37305 -99.16607,-8.07055 -35.425925,-9.44361 -80.271757,-34.5355 -80.271757,-34.5355"
       id="path6"
       sodipodi:nodetypes="czc" />
    <path
       style="fill:none;stroke:#4c4c4c;stroke-width:3.96875;stroke-linecap:round;stroke-linejoin:round;stroke-dasharray:none;stroke-opacity:1"
       d="m 37.335697,159.6101 c 0,0 28.001773,14.93429 53.203369,57.87034 25.201594,42.93605 22.401424,90.53906 22.401424,90.53906"
       id="path7"
       sodipodi:nodetypes="czc" />
    <path
       style="fill:none;stroke:#4c4c4c;stroke-width:3.96875;stroke-linecap:round;stroke-linejoin:round;stroke-dasharray:none;stroke-opacity:1"
       d="m 525.49993,336.02125 c 0,0 -22.79384,-22.47088 -36.56747,-41.3705 -13.77362,-18.89962 -24.10305,-41.7014 -24.10305,-41.7014"
       id="path8"
       sodipodi:nodetypes="czc" />
    <path
       style="fill:none;stroke:#4c4c4c;stroke-width:3.96875;stroke-linecap:round;stroke-linejoin:round;stroke-dasharray:none;stroke-opacity:1"
       d="m 191.40235,87.781079 c 5.28007,-2.640034 35.42628,-17.634448 46.86058,-28.380348 11.4343,-10.7459 22.44027,-32.340399 22.44027,-32.340399"
       id="path9"
       sodipodi:nodetypes="czc" />
    <path
       style="fill:none;stroke:#4c4c4c;stroke-width:3.96875;stroke-linecap:round;stroke-linejoin:round;stroke-dasharray:none;stroke-opacity:1"
       d="m 72.316127,506.77437 c 0,0 24.041725,-26.64622 36.703163,-70.83124 12.66145,-44.18502 13.82132,-70.50292 13.82132,-70.50292"
       id="path10"
       sodipodi:nodetypes="czc" />
    <path
       style="fill:none;stroke:#4c4c4c;stroke-width:6.61458;stroke-linecap:butt;stroke-linejoin:miter;stroke-dasharray:none;stroke-opacity:1"
       d="m 210.94669,348.15536 c -11.98086,-26.01141 -7.79619,-71.49434 10.26731,-93.33923 18.0635,-21.84489 44.6225,-18.73251 72.80462,-22.40142 28.18212,-3.66891 76.5415,-15.68238 94.27263,3.73357 17.73113,19.41595 5.64743,44.5544 -3.237,63.33455 -8.88444,18.78014 -27.08017,25.68624 -45.29941,41.20541 -18.21924,15.51917 -37.70842,50.33499 -64.40408,51.33657 -26.69566,1.00158 -52.42321,-17.85804 -64.40407,-43.86945 z"
       id="path11"
       sodipodi:nodetypes="zzzzzzzz" />
  </g>
</svg>
