<?xml version="1.0" encoding="UTF-8" standalone="no"?>
<!-- Created with Inkscape (http://www.inkscape.org/) -->

<svg
   width="2048"
   height="2047.9999"
   viewBox="0 0 541.86665 541.86663"
   version="1.1"
   id="svg1"
   inkscape:export-filename="plains.svg"
   inkscape:export-xdpi="33.78"
   inkscape:export-ydpi="33.78"
   xmlns:inkscape="http://www.inkscape.org/namespaces/inkscape"
   xmlns:sodipodi="http://sodipodi.sourceforge.net/DTD/sodipodi-0.dtd"
   xmlns="http://www.w3.org/2000/svg"
   xmlns:svg="http://www.w3.org/2000/svg"
   xmlns:rdf="http://www.w3.org/1999/02/22-rdf-syntax-ns#"
   xmlns:cc="http://creativecommons.org/ns#"
   xmlns:dc="http://purl.org/dc/elements/1.1/">
  <defs
     id="defs1" />
  <sodipodi:namedview
     id="base"
     pagecolor="#ffffff"
     bordercolor="#000000"
     borderopacity="0.3"
     inkscape:pageopacity="0.0"
     inkscape:pageshadow="2"
     inkscape:zoom="0.35"
     inkscape:cx="400"
     inkscape:cy="560"
     inkscape:document-units="mm"
     inkscape:showpageshadow="0"
     inkscape:pagecheckerboard="0"
     inkscape:deskcolor="#505050" />
  <metadata
     id="metadata1">
    <rdf:RDF>
      <cc:Work
         rdf:about="">
        <dc:format>image/svg+xml</dc:format>
        <dc:type
           rdf:resource="http://purl.org/dc/dcmitype/StillImage" />
      </cc:Work>
    </rdf:RDF>
  </metadata>
  <rect
     style="fill:#33933b;fill-opacity:1;stroke:#5a5a5a;stroke-width:0;stroke-linecap:round;stroke-linejoin:round;stroke-dashoffset:165.381;paint-order:markers fill stroke"
     id="rect1"
     width="548.82141"
     height="549.57739"
     x="1.4759247e-07"
     y="-1.511905" />
  <ellipse
     style="fill:#349e37;fill-opacity:1;fill-rule:evenodd;stroke-width:0.171275"
     id="path1"
     cx="59.66037"
     cy="-58.205917"
     rx="9.0714283"
     ry="16.630953"
     transform="rotate(83.033976)" />
  <ellipse
     style="fill:#2c852e;fill-opacity:1;fill-rule:evenodd;stroke-width:0.211932"
     id="ellipse10"
     cx="-165.65054"
     cy="104.77384"
     rx="13.121902"
     ry="17.603561"
     transform="matrix(-0.21780767,-0.97599171,0.89663472,-0.44277102,0,0)" />
  <ellipse
     style="fill:#2c852e;fill-opacity:1;fill-rule:evenodd;stroke-width:0.197786"
     id="ellipse11"
     cx="39.818443"
     cy="-245.10286"
     rx="11.306741"
     ry="17.793344"
     transform="matrix(-0.07589246,0.99711601,-0.99465483,-0.10325583,0,0)" />
  <ellipse
     style="fill:#2c852e;fill-opacity:1;fill-rule:evenodd;stroke-width:0.218154"
     id="ellipse12"
     cx="239.24249"
     cy="-349.45547"
     rx="13.849749"
     ry="17.672094"
     transform="matrix(0.19478291,0.98084638,-0.89850903,0.43895504,0,0)" />
  <ellipse
     style="fill:#2c852e;fill-opacity:1;fill-rule:evenodd;stroke-width:0.212262"
     id="ellipse13"
     cx="419.9498"
     cy="-133.42232"
     rx="12.17128"
     ry="19.037596"
     transform="matrix(0.919109,0.39400336,-0.67091013,0.74153867,0,0)" />
  <ellipse
     style="fill:#2c852e;fill-opacity:1;fill-rule:evenodd;stroke-width:0.239357"
     id="ellipse14"
     cx="272.44339"
     cy="90.957085"
     rx="13.443254"
     ry="21.917578"
     transform="matrix(0.94904574,0.31513836,-0.41583486,0.90944014,0,0)" />
  <ellipse
     style="fill:#349e37;fill-opacity:1;fill-rule:evenodd;stroke-width:0.23665"
     id="ellipse15"
     cx="66.878601"
     cy="204.08754"
     rx="15.814214"
     ry="18.212523"
     transform="matrix(0.99906909,-0.04313883,0.10988535,0.99394427,0,0)" />
  <ellipse
     style="fill:#2c852e;fill-opacity:1;fill-rule:evenodd;stroke-width:0.202696"
     id="ellipse16"
     cx="23.812494"
     cy="165.1756"
     rx="10.961309"
     ry="19.276787" />
  <ellipse
     style="fill:#2c852e;fill-opacity:1;fill-rule:evenodd;stroke-width:0.171275"
     id="ellipse17"
     cx="-286.04779"
     cy="48.79874"
     rx="9.0714283"
     ry="16.630953"
     transform="rotate(-92.653273)" />
  <ellipse
     style="fill:#349e37;fill-opacity:1;fill-rule:evenodd;stroke-width:0.171275"
     id="ellipse18"
     cx="246.44048"
     cy="240.39287"
     rx="9.0714283"
     ry="16.630953" />
  <ellipse
     style="fill:#349e37;fill-opacity:1;fill-rule:evenodd;stroke-width:0.205935"
     id="ellipse19"
     cx="305.86914"
     cy="53.603958"
     rx="10.960761"
     ry="19.898699"
     transform="matrix(0.62797018,0.7782374,-0.67813095,0.7349411,0,0)" />
  <ellipse
     style="fill:#2c852e;fill-opacity:1;fill-rule:evenodd;stroke-width:0.200386"
     id="ellipse20"
     cx="384.3024"
     cy="67.72422"
     rx="10.483624"
     ry="19.698338"
     transform="matrix(0.95708198,0.28981733,-0.27463021,0.96154992,0,0)" />
  <ellipse
     style="fill:#349e37;fill-opacity:1;fill-rule:evenodd;stroke-width:0.227003"
     id="ellipse21"
     cx="-120.20945"
     cy="284.83081"
     rx="13.228953"
     ry="20.032917"
     transform="matrix(-0.00455503,-0.99998963,0.99997771,-0.00667639,0,0)" />
  <ellipse
     style="fill:#349e37;fill-opacity:1;fill-rule:evenodd;stroke-width:0.227026"
     id="ellipse22"
     cx="224.52763"
     cy="428.31525"
     rx="12.036769"
     ry="22.021391"
     transform="matrix(0.78643858,-0.61766849,0.62464459,0.78090917,0,0)" />
  <ellipse
     style="fill:#349e37;fill-opacity:1;fill-rule:evenodd;stroke-width:0.190611"
     id="ellipse23"
     cx="244.339"
     cy="313.90863"
     rx="10.416167"
     ry="17.938841"
     transform="matrix(0.8618166,-0.50722002,0.65730043,0.75362865,0,0)" />
  <ellipse
     style="fill:#2c852e;fill-opacity:1;fill-rule:evenodd;stroke-width:0.222619"
     id="ellipse24"
     cx="577.02802"
     cy="50.563419"
     rx="12.457067"
     ry="20.460451"
     transform="matrix(0.89742761,0.44116174,-0.76274693,0.64669709,0,0)" />
  <ellipse
     style="fill:#349e37;fill-opacity:1;fill-rule:evenodd;stroke-width:0.171275"
     id="ellipse25"
     cx="443.87122"
     cy="95.736145"
     rx="9.0714283"
     ry="16.630953"
     transform="rotate(23.820948)" />
  <ellipse
     style="fill:#2c852e;fill-opacity:1;fill-rule:evenodd;stroke-width:0.171275"
     id="ellipse26"
     cx="400.93771"
     cy="134.9245"
     rx="9.0714283"
     ry="16.630953"
     transform="rotate(28.211029)" />
  <ellipse
     style="fill:#2c852e;fill-opacity:1;fill-rule:evenodd;stroke-width:0.217472"
     id="ellipse27"
     cx="-176.99492"
     cy="527.29041"
     rx="11.870091"
     ry="20.490681"
     transform="matrix(0.35406249,-0.93522177,0.91237559,0.40935411,0,0)" />
  <ellipse
     style="fill:#349e37;fill-opacity:1;fill-rule:evenodd;stroke-width:0.171275"
     id="ellipse28"
     cx="29.850836"
     cy="614.69934"
     rx="9.0714283"
     ry="16.630953"
     transform="rotate(-51.264869)" />
  <ellipse
     style="fill:#2c852e;fill-opacity:1;fill-rule:evenodd;stroke-width:0.171275"
     id="ellipse29"
     cx="516.31549"
     cy="143.631"
     rx="9.0714283"
     ry="16.630953" />
  <ellipse
     style="fill:#349e37;fill-opacity:1;fill-rule:evenodd;stroke-width:0.253748"
     id="ellipse30"
     cx="-16.864586"
     cy="506.81406"
     rx="13.989928"
     ry="23.669846"
     transform="matrix(0.47408041,-0.88048155,0.63328839,0.77391589,0,0)" />
  <ellipse
     style="fill:#2c852e;fill-opacity:1;fill-rule:evenodd;stroke-width:0.195419"
     id="ellipse31"
     cx="-5.8924975"
     cy="417.54425"
     rx="10.102954"
     ry="19.439625"
     transform="matrix(0.69770553,-0.71638467,0.53850418,0.84262284,0,0)" />
  <ellipse
     style="fill:#2c852e;fill-opacity:1;fill-rule:evenodd;stroke-width:0.235567"
     id="ellipse32"
     cx="334.22568"
     cy="351.22867"
     rx="14.342738"
     ry="19.897705"
     transform="matrix(0.95954101,0.28156889,-0.57840569,0.81574926,0,0)" />
  <ellipse
     style="fill:#2c852e;fill-opacity:1;fill-rule:evenodd;stroke-width:0.203818"
     id="ellipse33"
     cx="-363.81027"
     cy="52.199425"
     rx="12.819961"
     ry="16.664944"
     transform="matrix(0.04523412,-0.99897641,0.99591917,0.09024972,0,0)" />
  <ellipse
     style="fill:#349e37;fill-opacity:1;fill-rule:evenodd;stroke-width:0.222068"
     id="ellipse34"
     cx="-148.6781"
     cy="474.17847"
     rx="13.63658"
     ry="18.598246"
     transform="matrix(0.97128365,-0.23792451,0.47433099,0.88034659,0,0)" />
  <ellipse
     style="fill:#349e37;fill-opacity:1;fill-rule:evenodd;stroke-width:0.183745"
     id="ellipse35"
     cx="460.95447"
     cy="60.304295"
     rx="9.3026695"
     ry="18.665054"
     transform="matrix(0.45481905,0.89058387,-0.93181647,0.36292985,0,0)" />
  <ellipse
     style="fill:#2c852e;fill-opacity:1;fill-rule:evenodd;stroke-width:0.209768"
     id="ellipse36"
     cx="231.32144"
     cy="495.90485"
     rx="13.607142"
     ry="16.630953" />
  <ellipse
     style="fill:#2c852e;fill-opacity:1;fill-rule:evenodd;stroke-width:0.196205"
     id="ellipse37"
     cx="106.66853"
     cy="638.96094"
     rx="9.8721714"
     ry="20.054462"
     transform="matrix(0.77495751,-0.63201334,0.44561299,0.8952257,0,0)" />
  <ellipse
     style="fill:#349e37;fill-opacity:1;fill-rule:evenodd;stroke-width:0.200272"
     id="ellipse38"
     cx="624.87616"
     cy="0.81594938"
     rx="10.607228"
     ry="19.446562"
     transform="matrix(0.70863325,0.70557701,-0.70579961,0.70841154,0,0)" />
  <ellipse
     style="fill:#2c852e;fill-opacity:1;fill-rule:evenodd;stroke-width:0.171275"
     id="ellipse39"
     cx="701.36017"
     cy="103.83794"
     rx="9.0714283"
     ry="16.630953"
     transform="rotate(37.960848)" />
</svg>
