<?xml version="1.0" encoding="UTF-8" standalone="no"?>
<!-- Created with Inkscape (http://www.inkscape.org/) -->

<svg
   width="255.99998"
   height="128"
   viewBox="0 0 67.733328 33.866667"
   version="1.1"
   id="svg1"
   inkscape:version="1.3 (0e150ed6c4, 2023-07-21)"
   inkscape:export-filename="path.svg"
   inkscape:export-xdpi="33.78"
   inkscape:export-ydpi="33.78"
   sodipodi:docname="Unnamed document 1"
   xmlns:inkscape="http://www.inkscape.org/namespaces/inkscape"
   xmlns:sodipodi="http://sodipodi.sourceforge.net/DTD/sodipodi-0.dtd"
   xmlns="http://www.w3.org/2000/svg"
   xmlns:svg="http://www.w3.org/2000/svg">
  <sodipodi:namedview
     id="namedview1"
     pagecolor="#505050"
     bordercolor="#eeeeee"
     borderopacity="1"
     inkscape:showpageshadow="0"
     inkscape:pageopacity="0"
     inkscape:pagecheckerboard="0"
     inkscape:deskcolor="#505050"
     inkscape:document-units="mm" />
  <defs
     id="defs1" />
  <g
     inkscape:label="Layer 1"
     inkscape:groupmode="layer"
     id="layer1">
    <path
       style="display:none;fill:none;stroke:#000000;stroke-width:0.264583px;stroke-linecap:butt;stroke-linejoin:miter;stroke-opacity:1"
       d="m 41.906542,67.785806 c -2.191212,-0.02581 -19.027509,-0.02535 -20.290097,-0.03684 -0.0296,-6.085172 -0.31228,-7.205042 -0.655366,-9.378585 -0.37563,-2.379714 -0.753747,-4.104728 -0.804951,-5.487228 -0.102407,-2.765 -0.355885,-8.250102 0.304124,-12.622657 0.660009,-4.372555 0.660008,-9.487616 0.330004,-13.03516 C 20.460252,23.67779 19.212016,19.518567 19.54202,13.330991 19.744293,9.5383712 21.763478,2.6317662 21.716821,-0.07747992"
       id="path1"
       sodipodi:nodetypes="ccsszzsc"
       transform="matrix(0,1.3894794,-1,0,67.720178,-27.037175)" />
    <path
       style="display:none;fill:none;stroke:#000000;stroke-width:0.264583px;stroke-linecap:butt;stroke-linejoin:miter;stroke-opacity:1"
       d="m 41.838736,67.75335 c 0.101659,-4.16023 1.016565,-5.947211 0.935793,-12.223298 -0.08077,-6.276087 0.325145,-9.615608 0.332223,-11.990141 0.0071,-2.374533 1.067721,-5.619488 0.453757,-10.95201 -0.613964,-5.332522 -0.910969,-4.94687 -1.046633,-9.402688 -0.135663,-4.455818 0.434723,-7.18332 0.463263,-11.345103 0.02286,-3.3333678 -1.309083,-8.8785851 -1.250383,-11.00246561 0.01593,-0.57629921 0.04515,-0.87426812 -0.04919,-0.85540093"
       id="path2"
       sodipodi:nodetypes="czzzzssc"
       transform="matrix(0,1.3894794,-1,0,67.720178,-27.037175)" />
    <rect
       style="fill:#494949;fill-opacity:1;stroke:#ffffff;stroke-width:0;stroke-linecap:round;stroke-linejoin:round;stroke-dasharray:none;stroke-dashoffset:165.381;paint-order:markers fill stroke"
       id="rect6"
       width="67.554276"
       height="33.952152"
       x="0.11667405"
       y="0" />
    <rect
       style="fill:#777777;fill-opacity:1;stroke:#ffffff;stroke-width:0;stroke-linecap:round;stroke-linejoin:round;stroke-dasharray:none;stroke-dashoffset:165.381;paint-order:markers fill stroke"
       id="rect7"
       width="67.437607"
       height="6.0670509"
       x="0.11667405"
       y="0.11667405" />
    <rect
       style="fill:#777777;fill-opacity:1;stroke:#ffffff;stroke-width:0;stroke-linecap:round;stroke-linejoin:round;stroke-dasharray:none;stroke-dashoffset:165.381;paint-order:markers fill stroke"
       id="rect8"
       width="67.437607"
       height="6.0670509"
       x="0.2333481"
       y="27.768425" />
    <rect
       style="fill:#5a5a5a;fill-opacity:1;stroke:#5a5a5a;stroke-width:3.96875;stroke-linecap:round;stroke-linejoin:round;stroke-dasharray:none;stroke-dashoffset:165.381;stroke-opacity:1;paint-order:markers fill stroke"
       id="rect9"
       width="6.6504211"
       height="2.8001773"
       x="12.152382"
       y="-8.7937765"
       transform="rotate(84.021288)" />
    <rect
       style="fill:#5a5a5a;fill-opacity:1;stroke:#5a5a5a;stroke-width:3.96875;stroke-linecap:round;stroke-linejoin:round;stroke-dasharray:none;stroke-dashoffset:165.381;stroke-opacity:1;paint-order:markers fill stroke"
       id="rect10"
       width="6.6504211"
       height="2.8001773"
       x="8.6610203"
       y="-34.923206"
       transform="rotate(105.28253)" />
    <rect
       style="fill:#5a5a5a;fill-opacity:1;stroke:#5a5a5a;stroke-width:3.96875;stroke-linecap:round;stroke-linejoin:round;stroke-dasharray:none;stroke-dashoffset:165.381;stroke-opacity:1;paint-order:markers fill stroke"
       id="rect11"
       width="6.6504211"
       height="2.8001773"
       x="0.404789"
       y="-48.162449"
       transform="rotate(100.65684)" />
    <rect
       style="fill:#5a5a5a;fill-opacity:1;stroke:#5a5a5a;stroke-width:3.96875;stroke-linecap:round;stroke-linejoin:round;stroke-dasharray:none;stroke-dashoffset:165.381;stroke-opacity:1;paint-order:markers fill stroke"
       id="rect12"
       width="6.6504211"
       height="2.8001773"
       x="35.994499"
       y="-54.067719"
       transform="rotate(71.943205)" />
  </g>
</svg>
