<?xml version="1.0" encoding="UTF-8" standalone="no"?>
<!-- Created with Inkscape (http://www.inkscape.org/) -->

<svg
   width="255.99998"
   height="128"
   viewBox="0 0 67.733328 33.866667"
   version="1.1"
   id="svg1"
   inkscape:version="1.3 (0e150ed6c4, 2023-07-21)"
   inkscape:export-filename="river.svg"
   inkscape:export-xdpi="33.78"
   inkscape:export-ydpi="33.78"
   sodipodi:docname="Unnamed document 1"
   xmlns:inkscape="http://www.inkscape.org/namespaces/inkscape"
   xmlns:sodipodi="http://sodipodi.sourceforge.net/DTD/sodipodi-0.dtd"
   xmlns="http://www.w3.org/2000/svg"
   xmlns:svg="http://www.w3.org/2000/svg">
  <sodipodi:namedview
     id="namedview1"
     pagecolor="#505050"
     bordercolor="#eeeeee"
     borderopacity="1"
     inkscape:showpageshadow="0"
     inkscape:pageopacity="0"
     inkscape:pagecheckerboard="0"
     inkscape:deskcolor="#505050"
     inkscape:document-units="mm" />
  <defs
     id="defs1" />
  <g
     inkscape:label="Layer 1"
     inkscape:groupmode="layer"
     id="layer1">
    <path
       style="display:none;fill:none;stroke:#000000;stroke-width:0.264583px;stroke-linecap:butt;stroke-linejoin:miter;stroke-opacity:1"
       d="m 41.906542,67.785806 c -2.191212,-0.02581 -19.027509,-0.02535 -20.290097,-0.03684 -0.0296,-6.085172 -0.31228,-7.205042 -0.655366,-9.378585 -0.37563,-2.379714 -0.753747,-4.104728 -0.804951,-5.487228 -0.102407,-2.765 -0.355885,-8.250102 0.304124,-12.622657 0.660009,-4.372555 0.660008,-9.487616 0.330004,-13.03516 C 20.460252,23.67779 19.212016,19.518567 19.54202,13.330991 19.744293,9.5383712 21.763478,2.6317662 21.716821,-0.07747992"
       id="path1"
       sodipodi:nodetypes="ccsszzsc"
       transform="matrix(0,1.3894794,-1,0,67.720178,-27.037175)" />
    <path
       style="display:none;fill:none;stroke:#000000;stroke-width:0.264583px;stroke-linecap:butt;stroke-linejoin:miter;stroke-opacity:1"
       d="m 41.838736,67.75335 c 0.101659,-4.16023 1.016565,-5.947211 0.935793,-12.223298 -0.08077,-6.276087 0.325145,-9.615608 0.332223,-11.990141 0.0071,-2.374533 1.067721,-5.619488 0.453757,-10.95201 -0.613964,-5.332522 -0.910969,-4.94687 -1.046633,-9.402688 -0.135663,-4.455818 0.434723,-7.18332 0.463263,-11.345103 0.02286,-3.3333678 -1.309083,-8.8785851 -1.250383,-11.00246561 0.01593,-0.57629921 0.04515,-0.87426812 -0.04919,-0.85540093"
       id="path2"
       sodipodi:nodetypes="czzzzssc"
       transform="matrix(0,1.3894794,-1,0,67.720178,-27.037175)" />
    <path
       style="fill:#5ebdbd;fill-opacity:1;stroke:#000000;stroke-width:0;stroke-linecap:butt;stroke-linejoin:miter;stroke-dasharray:none;stroke-opacity:1"
       d="m -0.0412505,2.3100284 c 0,0 12.9939095,-2.22752739 23.2240355,-2.22752739 10.230126,0 11.98801,1.18402179 17.820218,1.07251309 5.832208,-0.1115087 9.416253,-1.22515917 14.520179,-0.90751106 5.103926,0.31764811 12.230775,1.98002416 12.230775,1.98002416 l 0.02063,29.0403568 c 0,0 -19.427276,3.371607 -26.441578,2.557531 -7.014301,-0.814076 -8.752514,-1.818374 -13.94267,-1.897524 -5.190156,-0.07915 -8.914899,1.804681 -14.025172,1.732522 C 8.2548908,33.588254 0,31.041007 0,31.041007 Z"
       id="path12"
       sodipodi:nodetypes="czzzcczzzcc" />
  </g>
</svg>
